<?xml version="1.0" standalone="no"?>
<!DOCTYPE svg PUBLIC "-//W3C//DTD SVG 1.1//EN" "http://www.w3.org/Graphics/SVG/1.1/DTD/svg11.dtd" >
<svg>
<metadata>
Created by FontForge 20120731 at Wed Jul 31 10:29:38 2019
 By www-data
</metadata>
<defs>
<font id="PSLBundit" horiz-adv-x="0" >
  <font-face 
    font-family="PSLBundit"
    font-weight="400"
    font-stretch="normal"
    units-per-em="1000"
    panose-1="2 0 0 0 0 0 0 0 0 0"
    ascent="800"
    descent="-200"
    x-height="345"
    cap-height="480"
    bbox="-450 -395 680 777"
    underline-thickness="50"
    underline-position="-50"
    unicode-range="U+0020-FB02"
  />
<missing-glyph horiz-adv-x="500" 
d="M63 777h375v-777h-375v777zM375 63v652h-250v-652h250z" />
    <glyph glyph-name="uni0E4F.liga" unicode="&#xe4f;&#x22;" 
 />
    <glyph glyph-name="uni0E24.liga" unicode="&#xe24;&#xe32;" horiz-adv-x="601" 
d="M516 -160v433q0 98 -95 98q-33 0 -59.5 -19t-37.5 -51q1 -5 1.5 -11t0.5 -12v-438h-39v430q0 48 -30 74.5t-79 27.5q-45 0 -111 -38q33 -3 60 -10t47 -16v-31q-35 -3 -57 -28.5t-22 -61.5v-57q9 8 28 8q29 0 48.5 -20t19.5 -51t-20 -52t-48 -21q-29 0 -48.5 20.5
t-19.5 52.5v119q0 80 75 106q-52 17 -108 18v28q16 11 32 21.5t33 21.5q44 23 94 23q42 0 74 -15t51 -43q20 26 49.5 42t64.5 16q63 0 99.5 -33t36.5 -93v-438h-40zM157 65q0 16 -10 28t-24 12t-23.5 -12t-9.5 -28q0 -15 9.5 -27t23.5 -12t24 12t10 27z" />
    <glyph glyph-name="uni0E26.liga" unicode="&#xe26;&#xe32;" horiz-adv-x="628" 
d="M543 -160v433q0 98 -95 98q-33 0 -59.5 -19.5t-37.5 -51.5v-460h-40v447q0 38 -27.5 61t-72.5 23q-19 0 -45 -9t-59 -26q34 -5 61 -12t47 -16v-31q-35 -2 -54 -28t-18 -62l3 -120q1 -31 -19 -52t-49 -21q-28 0 -48 21t-20 52t19.5 51t48.5 20q19 0 30 -8l-3 63
q-3 74 64 102q-43 15 -106 15v28l63 43q44 23 91 23q40 0 70.5 -15t47.5 -41q20 26 49 41t63 15q63 0 99.5 -33t36.5 -93v-438h-40zM111 65q0 16 -9.5 28t-23.5 12t-24 -12t-10 -28q0 -15 10 -27t24 -12t23.5 12t9.5 27z" />
    <glyph glyph-name="fi" unicode="fi" 
 />
    <glyph glyph-name="fl" unicode="fl" 
 />
    <glyph glyph-name=".notdef" horiz-adv-x="500" 
d="M63 777h375v-777h-375v777zM375 63v652h-250v-652h250z" />
    <glyph glyph-name=".null" 
 />
    <glyph glyph-name="Praifa" horiz-adv-x="312" 
 />
    <glyph glyph-name="space" unicode=" " horiz-adv-x="256" 
 />
    <glyph glyph-name="space" unicode="&#xa0;" horiz-adv-x="256" 
 />
    <glyph glyph-name="lefttorightmark" unicode="&#x200e;" horiz-adv-x="335" 
 />
    <glyph glyph-name="righttoleftmark" unicode="&#x200f;" horiz-adv-x="348" 
 />
    <glyph glyph-name="zerowidthnonjoiner" unicode="&#x200c;" horiz-adv-x="150" 
 />
    <glyph glyph-name="zerowidthjoiner" unicode="&#x200d;" horiz-adv-x="211" 
 />
    <glyph glyph-name="uni0E00" unicode="&#xe00;" 
 />
    <glyph glyph-name="uni0E01" unicode="&#xe01;" horiz-adv-x="381" 
d="M287 0v270q0 48 -30 74.5t-79 27.5q-42 1 -111 -37q67 -8 107 -27v-30q-35 -4 -57 -29t-22 -61v-188h-40v186q0 79 75 107q-52 17 -108 18v28q16 11 32 21t33 21q44 24 94 24q31 0 57.5 -9t46 -25.5t30.5 -39.5t11 -52v-279h-39z" />
    <glyph glyph-name="uni0E02" unicode="&#xe02;" horiz-adv-x="388" 
d="M333 94q0 -94 -111 -94h-131v35h53v160q0 33 23 65q24 32 24 51q0 28 -21.5 45t-50.5 17q-34 0 -56 -17q27 -1 42.5 -18t15.5 -41q0 -27 -18 -46.5t-42 -19.5q-26 0 -44.5 19t-18.5 50q0 44 37 74q37 31 84 31q48 0 79 -23.5t31 -68.5q0 -24 -23 -59q-23 -34 -23 -62
v-157h36q42 0 58 15t16 55v295h40v-306v0zM89 294q0 34 -30 34q-29 0 -29 -34t29 -34q12 0 21 10t9 24z" />
    <glyph glyph-name="uni0E03" unicode="&#xe03;" horiz-adv-x="388" 
d="M333 94q0 -94 -111 -94h-131v35h53v152q0 34 25 68q26 35 26 53q0 36 -28 58l-35 -28q-7 5 -16.5 12.5t-21.5 16.5q-15 -7 -32 -27q25 0 42 -18t17 -42q0 -27 -18 -47t-42 -20q-26 0 -44.5 19.5t-18.5 50.5q0 42 31 77q27 32 66 45l37 -30l39 30q62 -35 62 -96
q0 -27 -25 -62q-24 -34 -24 -66v-146h35q42 0 58 15t16 55v295h40v-306v0zM90 276q0 31 -30 31q-29 0 -29 -31q0 -30 29 -30q12 0 21 9t9 21z" />
    <glyph glyph-name="uni0E04" unicode="&#xe04;" horiz-adv-x="390" 
d="M295 0v263q0 47 -27 75q-30 33 -86 33q-24 0 -43.5 -8t-33.5 -21t-22 -30.5t-8 -37.5q1 -10 3 -26q2 -14 4 -33.5t4 -46.5q31 130 101 130q27 0 44.5 -18.5t17.5 -44.5q0 -27 -18.5 -46.5t-43.5 -19.5q-38 0 -53 37q-34 -62 -31 -125q1 -32 -5 -81h-39q2 15 3.5 24.5
t1.5 13.5q0 11 -1.5 29t-5.5 44q-4 20 -7 40.5t-6 40.5q-9 53 -9 88q0 52 43 88q43 37 105 37q65 0 108 -35q44 -38 44 -101v-269h-40zM218 235q0 13 -9.5 22t-21.5 9t-21 -9t-9 -22q0 -34 30 -34q31 0 31 34z" />
    <glyph glyph-name="uni0E05" unicode="&#xe05;" horiz-adv-x="390" 
d="M295 0v287q0 65 -55 81l-50 -46l-52 46q-30 -11 -46.5 -37.5t-16.5 -56.5q0 -18 3 -49.5t10 -77.5l4 31q29 114 94 114q26 0 44 -18.5t18 -46.5q0 -27 -18 -45t-44 -18q-35 0 -55 32q-30 -76 -30 -152q0 -26 -5 -44h-40q6 29 6 42q0 10 -2 29.5t-6 48.5
q-10 70 -14.5 107.5t-4.5 43.5q0 56 34 93q30 33 79 41l42 -36l43 36q48 -7 75 -37t27 -75v-293h-40zM216 227q0 33 -31 33q-30 0 -30 -33q0 -34 30 -34q31 0 31 34z" />
    <glyph glyph-name="uni0E06" unicode="&#xe06;" horiz-adv-x="415" 
d="M316 0q-50 73 -138 101q12 -15 12 -33q0 -31 -20.5 -52t-48.5 -21t-48.5 21t-20.5 52q0 33 24 55.5t60 21.5v50q0 31 30 65q31 34 31 54q0 32 -21 51l-38 -28l-40 31q-24 -13 -30 -35q24 0 41.5 -16.5t17.5 -39.5q0 -25 -17 -44t-40 -19q-24 0 -42 18t-18 48q0 40 31 80
q28 35 58 46l39 -31l43 31q53 -32 53 -90q0 -33 -30 -68q-29 -35 -29 -61v-49q87 -25 145 -89v351h40v-400h-44zM97 273q0 30 -28 30t-28 -30q0 -11 8.5 -20t19.5 -9t19.5 9t8.5 20zM153 68q0 40 -32 40q-31 0 -31 -40t31 -40q32 0 32 40z" />
    <glyph glyph-name="uni0E07" unicode="&#xe07;" horiz-adv-x="321" 
d="M227 0l-227 267l29 23l198 -235v209q-10 -9 -33 -9q-29 0 -50 22.5t-21 52.5q0 32 20.5 53.5t50.5 21.5t51 -21t21 -54v-330h-39zM228 330q0 17 -10.5 29t-25.5 12t-25 -12t-10 -29t10 -29t25 -12t25.5 12t10.5 29z" />
    <glyph glyph-name="uni0E08" unicode="&#xe08;" horiz-adv-x="358" 
d="M261 0q-25 76 -79 161q-16 -43 -58 -43q-26 0 -46.5 20t-20.5 50q0 27 19.5 46.5t46.5 19.5q39 0 71 -44q14 -20 28.5 -46.5t30.5 -59.5l14 -41l-4 51v149q0 48 -30 78t-76 30q-83 0 -120 -91l-37 12q19 48 58 79q44 34 100 34q61 0 102 -35q43 -37 43 -103v-267h-42z
M152 185q0 36 -31 36q-30 0 -30 -35q0 -34 30 -34q12 0 21.5 10.5t9.5 22.5z" />
    <glyph glyph-name="uni0E09" unicode="&#xe09;" horiz-adv-x="389" 
d="M350 68q0 -30 -18.5 -50.5t-45.5 -20.5q-29 0 -49 22.5t-16 55.5q-54 -25 -84 -75h-43v117q0 9 5 17q-3 -1 -15 -1q-27 0 -45.5 20t-18.5 49t18.5 48.5t45.5 19.5t46.5 -20t19.5 -48q0 -20 -8 -42.5t-8 -40.5v-65q16 16 43.5 34.5t69.5 38.5q13 7 21 11.5t10 6.5
q15 14 15 40v87q0 43 -26 69q-28 30 -82 30q-36 0 -70 -22t-48 -59l-37 12q16 42 58 71q46 32 98 32q63 0 104 -32q44 -36 44 -98v-92q0 -33 -24 -56q40 -15 40 -59zM315 67q0 15 -9 26t-21 11t-21 -11t-9 -26q0 -16 9 -27.5t21 -11.5t21 11.5t9 27.5zM117 201q0 15 -10 26
t-23 11q-31 0 -31 -37t31 -37q13 0 23 11t10 26z" />
    <glyph glyph-name="uni0E0A" unicode="&#xe0a;" horiz-adv-x="391" 
d="M343 425q-1 -33 -18 -63q-20 -35 -52 -48q63 -16 63 -76v-144q0 -94 -111 -94h-134v35h53v160q0 33 23 65q24 32 24 51q0 28 -21.5 45t-50.5 17q-34 0 -56 -17q27 -1 42.5 -18t15.5 -41q0 -27 -18 -46.5t-42 -19.5q-26 0 -44.5 19t-18.5 50q0 44 37 74q37 31 84 31
q43 0 73.5 -20.5t35.5 -58.5q72 18 72 99h43v0zM296 232q0 58 -68 66q-3 -17 -25 -49q-20 -29 -20 -57v-157h39q42 0 58 15t16 55v127zM89 294q0 34 -30 34q-29 0 -29 -34t29 -34q12 0 21 10t9 24z" />
    <glyph glyph-name="uni0E0B" unicode="&#xe0b;" horiz-adv-x="392" 
d="M344 425q-1 -33 -18 -63q-20 -35 -52 -48q63 -16 63 -76v-144q0 -94 -111 -94h-135v35h53v152q0 34 25 68q26 35 26 53q0 36 -28 58l-35 -28q-7 5 -16.5 12.5t-21.5 16.5q-15 -7 -32 -27q25 0 42 -18t17 -42q0 -27 -18 -47t-42 -20q-26 0 -44.5 19.5t-18.5 50.5
q0 42 31 77q27 32 66 45l37 -30l39 30q51 -28 60 -78q70 18 70 98h43v0zM297 232q0 55 -65 66q-3 -18 -26 -54q-22 -32 -22 -63v-146h39q42 0 58 15t16 55v127zM90 276q0 31 -30 31q-29 0 -29 -31q0 -30 29 -30q12 0 21 9t9 21z" />
    <glyph glyph-name="uni0E0C" unicode="&#xe0c;" horiz-adv-x="551" 
d="M454 0q-19 44 -84 75q3 -33 -16 -56.5t-49 -23.5q-26 0 -45 20t-19 48q0 46 47 63q-22 16 -21 58l2 103q1 38 -26.5 61t-72.5 23q-29 0 -58 -16q-11 -8 -23 -15t-23 -14q34 -4 61 -11t47 -17v-30q-36 -3 -57.5 -28.5t-21.5 -61.5v-47q11 8 28 8q29 0 48.5 -20.5
t19.5 -51.5q0 -30 -20 -51t-48 -21q-29 0 -48.5 20.5t-19.5 51.5v117q0 70 73 101q-42 16 -106 16v28l32 24t32 25q42 27 90 27q60 0 97 -30t36 -84l-2 -108q-1 -27 11 -41q5 -6 28 -17l53 -25q31 -17 58 -44v344h39v-400h-42zM337 63q0 14 -9 24t-22 10t-22 -10t-9 -24
q0 -15 9 -25.5t22 -10.5t22 10.5t9 25.5zM157 66q0 16 -10 27.5t-24 11.5t-23.5 -11.5t-9.5 -27.5t9.5 -27.5t23.5 -11.5t24 11.5t10 27.5z" />
    <glyph glyph-name="uni0E0D" unicode="&#xe0d;" horiz-adv-x="532" 
d="M477 94q0 -94 -111 -94h-130v35h34v252q0 39 -27.5 61.5t-72.5 22.5q-29 0 -58 -16q-11 -8 -23 -15t-23 -14q34 -4 61 -11t47 -17v-30q-36 -3 -57.5 -28.5t-21.5 -61.5v-47q11 8 28 8q29 0 48.5 -20.5t19.5 -51.5q0 -30 -20 -51t-48 -21q-29 0 -48.5 20.5t-19.5 51.5v117
q0 70 73 101q-42 16 -106 16v28l32 24t32 25q42 27 90 27q58 0 95.5 -31t37.5 -83v-256h54q42 0 58 15t16 55v294l40 1v-306v0zM489 -36q-8 -54 -49.5 -86t-107.5 -32q-51 0 -82 20.5t-31 53.5q0 24 16 40.5t39 16.5q24 0 40 -16.5t16 -41.5q0 -23 -19 -42q6 -1 12 -1h12
q99 0 115 88h39v0zM300 -80q0 30 -26 30q-25 0 -25 -30q0 -31 25 -31q26 0 26 31zM157 66q0 16 -10 27.5t-24 11.5t-23.5 -11.5t-9.5 -27.5t9.5 -27.5t23.5 -11.5t24 11.5t10 27.5z" />
    <glyph glyph-name="uni0E0E" unicode="&#xe0e;" horiz-adv-x="405" 
d="M306 -190q-28 48 -76 83q-15 -33 -47.5 -56t-69.5 -25q-42 -2 -69 15.5t-29 49.5q-1 31 25 55q25 22 58 26q7 1 13 1.5t13 0.5q43 0 83 -18q4 13 4 39h38q1 -14 -1 -28t-7 -28q23 -16 41 -31t29 -31v424q0 39 -27.5 61.5t-72.5 22.5q-37 0 -104 -35q34 -4 61 -11t47 -17
v-30q-35 -3 -54 -28.5t-18 -61.5l3 -121q1 -30 -19 -51t-49 -21q-28 0 -48 21t-20 51q0 31 19.5 51.5t48.5 20.5q17 0 30 -8l-3 63q-3 73 64 101q-42 16 -106 16v28l63 42q44 24 91 24q58 0 95.5 -31t37.5 -83v-481h-44zM111 66q0 16 -9.5 27.5t-23.5 11.5t-24 -11.5
t-10 -27.5t10 -27.5t24 -11.5t23.5 11.5t9.5 27.5zM195 -92q-24 21 -74 21q-28 0 -48 -13q-25 -17 -21 -42q6 -33 53 -33q18 0 33 6q45 20 57 61z" />
    <glyph glyph-name="uni0E0F" unicode="&#xe0f;" horiz-adv-x="412" 
d="M304 -190l-44 42l-41 -42h-26q-12 18 -34 38q-32 -38 -81 -38q-27 0 -48.5 16t-21.5 39q0 26 22 43t52 17q38 0 62 -21q4 17 4 40h38q0 -36 -11 -64l33 -33l52 50l51 -47v437q0 39 -27.5 61.5t-72.5 22.5q-37 0 -104 -35q34 -4 61 -11t47 -17v-30q-35 -3 -54 -28.5
t-18 -61.5l3 -121q1 -30 -19 -51t-49 -21q-28 0 -48 21t-20 51q0 31 19.5 51.5t48.5 20.5q17 0 30 -8l-3 63q-3 73 64 101q-42 16 -106 16v28l63 42q44 24 91 24q58 0 95.5 -31t37.5 -83v-481h-46zM111 66q0 16 -9.5 27.5t-23.5 11.5t-24 -11.5t-10 -27.5t10 -27.5t24 -11.5
t23.5 11.5t9.5 27.5zM131 -130q-17 23 -49 23q-15 0 -27 -7.5t-12 -19.5q0 -10 11.5 -17.5t24.5 -7.5q37 0 52 29z" />
    <glyph glyph-name="uni0E10" unicode="&#xe10;" horiz-adv-x="349" 
d="M308 374q-26 -29 -56 -29q-19 0 -48 12q-14 7 -27.5 10t-24.5 4q-30 1 -56 -14q-7 -4 -17 -12t-24 -21q13 1 25 1.5t23 0.5q191 0 191 -105v-221h-40q-33 89 -81 165q-5 -16 -18 -29q-16 -18 -39 -18q-27 0 -47 20t-20 50q0 27 19.5 46.5t46.5 19.5q40 0 69 -41
q23 -32 37.5 -57.5t21.5 -45.5l16 -47q-2 17 -3.5 28t-1.5 18v109q0 76 -175 76q-32 0 -79 -3v27l60 54q41 33 93 33q27 0 54 -13q30 -12 36 -12q21 0 37 19l28 -25v0zM252 -190l-39 30l-39 -30h-34q-6 14 -19 27q-28 -30 -68 -30q-22 0 -40 14t-18 34q0 21 20.5 37t44.5 16
q33 0 55 -19q9 22 6 36h34q1 -31 -15 -59l12 -14t11 -15l50 37l46 -34v47q-7 -4 -16 -4q-22 0 -37 14t-15 34t15 34t37 14t37.5 -14t15.5 -34v-121h-44zM144 185q0 36 -31 36q-30 0 -30 -35q0 -34 30 -34q12 0 21.5 10.5t9.5 22.5zM263 -70q0 21 -22 21t-22 -21t22 -21
t22 21zM100 -140q-14 20 -44 18q-29 -2 -29 -24q0 -20 29 -20q30 0 44 26z" />
    <glyph glyph-name="uni0E11" unicode="&#xe11;" horiz-adv-x="428" 
d="M333 0v307q0 56 -32 56l-139 -363h-57v162q0 32 31 79q32 50 32 73q0 32 -26 52l-30 -28l-30 28q-15 -7 -29 -29q27 1 45 -16t18 -42t-17 -43t-40 -18q-24 0 -41.5 20t-17.5 51q0 37 24 69t57 47l31 -29l32 29q59 -32 59 -90q0 -31 -29 -81q-29 -49 -29 -75v-71l-3 -48
l13 42l120 318h25q73 0 73 -83v-317h-40zM84 277q0 29 -25 29t-25 -29q0 -11 7.5 -19.5t17.5 -8.5t17.5 8.5t7.5 19.5z" />
    <glyph glyph-name="uni0E12" unicode="&#xe12;" horiz-adv-x="567" 
d="M469 0q-22 42 -88 73q2 -34 -17.5 -56t-47.5 -22q-26 0 -44.5 20t-18.5 48q0 22 14.5 40.5t33.5 22.5q-19 21 -18 55l2 115q1 52 -52 69l-44 -42l-52 43q-24 -6 -41.5 -31t-18.5 -59q-1 -28 12 -81q7 -30 11 -54.5t6 -43.5q1 -11 -2 -42q3 5 7.5 13t10.5 19
q11 16 24.5 33.5t30.5 37.5q-22 3 -37.5 21.5t-15.5 43.5q0 28 18.5 47.5t44.5 19.5q28 0 47 -19.5t19 -47.5q0 -25 -18 -49l-34 -44l-34 -44q-23 -31 -38 -52.5t-20 -33.5h-44q2 32 2 61.5t-4 56.5q-1 8 -5 26.5t-11 47.5q-12 47 -12 86q0 50 30 87q31 37 77 40l46 -37
l38 37q45 -7 72.5 -33.5t26.5 -61.5l-2 -127q0 -28 8 -42q6 -9 26 -18q20 -10 33.5 -16.5t21.5 -10.5q36 -20 60 -43v347h40v-400h-43zM217 223q0 33 -31 33q-12 0 -20.5 -9.5t-8.5 -22.5q0 -34 30 -34t30 33zM347 63q0 13 -9 23t-21 10t-21 -10t-9 -23q0 -35 30 -35t30 35z
" />
    <glyph glyph-name="uni0E13" unicode="&#xe13;" horiz-adv-x="543" 
d="M504 63q0 -28 -19 -48t-45 -20q-27 0 -46.5 21t-18.5 56q-20 -17 -35.5 -35t-26.5 -37h-43v287q0 39 -27.5 61.5t-72.5 22.5q-29 0 -58 -16q-11 -8 -23 -15t-23 -14q34 -4 61 -11t47 -17v-30q-36 -3 -57.5 -28.5t-21.5 -61.5v-47q11 8 28 8q29 0 48.5 -20.5t19.5 -51.5
q0 -30 -20 -51t-48 -21q-29 0 -48.5 20.5t-19.5 51.5v117q0 70 73 101q-42 16 -106 16v28l32 24t32 25q42 27 90 27q58 0 95.5 -31t37.5 -83v-234q25 29 94 72q45 29 45 68v203h40v-210q0 -41 -28 -60q44 -17 44 -67zM469 67q0 15 -9 26t-21 11t-21 -11t-9 -26
q0 -16 9 -27.5t21 -11.5t21 11.5t9 27.5zM157 66q0 16 -10 27.5t-24 11.5t-23.5 -11.5t-9.5 -27.5t9.5 -27.5t23.5 -11.5t24 11.5t10 27.5z" />
    <glyph glyph-name="uni0E14" unicode="&#xe14;" horiz-adv-x="395" 
d="M301 0v263q0 44 -29 75q-31 33 -88 33q-24 0 -43.5 -8t-34 -21.5t-22.5 -31.5t-8 -37q0 -23 12 -79q13 -58 15 -100v-47q9 20 14 29q23 37 60 82q-52 13 -52 67q0 26 19 46t44 20q27 0 46.5 -19t19.5 -47q0 -27 -26 -59q-92 -112 -120 -166h-42q2 29 2 58t-4 60
q-1 9 -5 27.5t-12 47.5q-12 48 -12 87q0 52 45 88q44 37 105 37q66 0 110 -35q46 -37 46 -102v-268h-40zM218 223q0 35 -31 35q-12 0 -21 -10t-9 -23q0 -15 9 -26t22 -11q12 0 21 10.5t9 24.5z" />
    <glyph glyph-name="uni0E15" unicode="&#xe15;" horiz-adv-x="395" 
d="M301 0v267q0 74 -56 97l-50 -47l-59 48q-20 -3 -39 -28q-22 -28 -22 -60q0 -22 15 -96q13 -70 12 -133q2 5 5.5 12t8.5 16q23 37 60 82q-52 13 -52 67q0 26 19 46t44 20q27 0 46.5 -19t19.5 -47q0 -27 -26 -59q-92 -112 -120 -166h-42q2 34 1 63.5t-3 54.5q-1 10 -5 28.5
t-11 46.5q-12 50 -12 85q0 49 34 86q31 34 74 41l51 -43l47 43q43 -11 69 -41q30 -34 30 -82v-282h-39zM217 223q0 35 -31 35q-12 0 -21 -10t-9 -23q0 -15 9 -26t22 -11q12 0 21 10.5t9 24.5z" />
    <glyph glyph-name="uni0E16" unicode="&#xe16;" horiz-adv-x="381" 
d="M287 0v270q0 48 -30 74.5t-79 27.5q-42 1 -111 -37q67 -8 107 -27v-30q-35 -4 -57 -29t-22 -61v-57q11 8 28 8q29 0 48.5 -20.5t19.5 -51.5q0 -30 -20 -51t-48 -21q-29 0 -48.5 20.5t-19.5 51.5v119q0 79 75 107q-52 17 -108 18v28q16 11 32 21t33 21q44 24 94 24
q31 0 57.5 -9t46 -25.5t30.5 -39.5t11 -52v-279h-39zM157 66q0 16 -10 27.5t-24 11.5t-23.5 -11.5t-9.5 -27.5t9.5 -27.5t23.5 -11.5t24 11.5t10 27.5z" />
    <glyph glyph-name="uni0E17" unicode="&#xe17;" horiz-adv-x="408" 
d="M313 0v319q0 51 -36 51q-26 0 -43 -51l-103 -319h-43v244q0 10 5 18q-3 -1 -15 -1q-28 0 -48 21t-20 51t20 51t48 21q29 0 49 -21t20 -51q0 -21 -9.5 -44.5t-9.5 -42.5v-99l-5 -77h2l12 55l68 214q21 66 74 66q38 0 58 -26q16 -20 16 -50v-329h-40zM112 332
q0 16 -10 27.5t-24 11.5t-23.5 -11.5t-9.5 -27.5t9.5 -27.5t23.5 -11.5t24 11.5t10 27.5z" />
    <glyph glyph-name="uni0E18" unicode="&#xe18;" horiz-adv-x="359" 
d="M318 374q-21 -30 -56 -30q-22 0 -55 13q-17 7 -30.5 10t-24.5 4q-31 1 -55 -21q-9 -10 -18 -19.5t-17 -19.5q242 8 242 -107v-104q0 -46 -30.5 -73t-84.5 -27h-161v35h43v192h41v-192h70q82 0 82 69v95q0 81 -189 81h-27t-38 -1v29q14 10 36 37q25 30 42 41q28 19 65 19
q27 0 60 -13t41 -13q20 0 36 21l28 -26v0z" />
    <glyph glyph-name="uni0E19" unicode="&#xe19;" horiz-adv-x="406" 
d="M363 65q0 -29 -19 -49.5t-47 -20.5q-25 0 -44 18.5t-19 46.5q0 7 2 17q-72 -29 -104 -77h-44v244q0 10 5 18q-3 -1 -15 -1q-28 0 -48 21t-20 51t20 51t48 21q29 0 49 -21t20 -51q0 -21 -9.5 -44.5t-9.5 -42.5v-197q17 14 46.5 32.5t74.5 40.5q57 27 57 66v212h40v-219
q0 -33 -24 -53q41 -14 41 -63zM112 332q0 16 -10 27.5t-24 11.5t-23.5 -11.5t-9.5 -27.5t9.5 -27.5t23.5 -11.5t24 11.5t10 27.5zM327 65q0 13 -9 23t-21 10q-29 0 -29 -33q0 -35 29 -35q30 0 30 35z" />
    <glyph glyph-name="uni0E1A" unicode="&#xe1a;" horiz-adv-x="415" 
d="M356 94q0 -94 -111 -94h-208v35h51v209q0 10 5 18q-3 -1 -15 -1q-28 0 -48 21t-20 51t20 51t48 21q29 0 49 -21t20 -51q0 -21 -9.5 -44.5t-9.5 -42.5v-211h114q42 0 58 15t16 55v295h40v-306v0zM112 332q0 16 -10 27.5t-24 11.5t-23.5 -11.5t-9.5 -27.5t9.5 -27.5
t23.5 -11.5t24 11.5t10 27.5z" />
    <glyph glyph-name="uni0E1B" unicode="&#xe1b;" horiz-adv-x="415" 
d="M356 94q0 -94 -111 -94h-208v35h51v209q0 10 5 18q-3 -1 -15 -1q-28 0 -48 21t-20 51t20 51t48 21q29 0 49 -21t20 -51q0 -21 -9.5 -44.5t-9.5 -42.5v-211h114q42 0 58 15t16 55v455h40v-466v0zM112 332q0 16 -10 27.5t-24 11.5t-23.5 -11.5t-9.5 -27.5t9.5 -27.5
t23.5 -11.5t24 11.5t10 27.5z" />
    <glyph glyph-name="uni0E1C" unicode="&#xe1c;" horiz-adv-x="400" 
d="M301 0l-100 172l-103 -172h-43v333q0 31 19.5 51.5t48.5 20.5q28 0 48 -21t20 -51q0 -31 -19.5 -51.5t-48.5 -20.5q-17 0 -28 8v-206l89 147h31l90 -149v339h40v-400h-44zM157 334q0 16 -10 27.5t-24 11.5t-23.5 -11.5t-9.5 -27.5t9.5 -27.5t23.5 -11.5t24 11.5t10 27.5z
" />
    <glyph glyph-name="uni0E1D" unicode="&#xe1d;" horiz-adv-x="400" 
d="M301 0l-100 172l-103 -172h-43v333q0 31 19.5 51.5t48.5 20.5q28 0 48 -21t20 -51q0 -31 -19.5 -51.5t-48.5 -20.5q-17 0 -28 8v-206l89 147h31l90 -149v499h40v-560h-44zM157 334q0 16 -10 27.5t-24 11.5t-23.5 -11.5t-9.5 -27.5t9.5 -27.5t23.5 -11.5t24 11.5t10 27.5z
" />
    <glyph glyph-name="uni0E1E" unicode="&#xe1e;" horiz-adv-x="432" 
d="M336 0l-103 338l-105 -338h-40v244q0 10 5 18q-3 -1 -15 -1q-28 0 -48 21t-20 51t20 51t48 21q29 0 49 -21t20 -51q0 -21 -9.5 -44.5t-9.5 -42.5v-72l-3 -89l15 65l76 250h33l76 -249l16 -66l-3 89v226h39v-400h-41zM112 332q0 16 -10 27.5t-24 11.5t-23.5 -11.5
t-9.5 -27.5t9.5 -27.5t23.5 -11.5t24 11.5t10 27.5z" />
    <glyph glyph-name="uni0E1F" unicode="&#xe1f;" horiz-adv-x="432" 
d="M336 0l-103 338l-105 -338h-40v244q0 10 5 18q-3 -1 -15 -1q-28 0 -48 21t-20 51t20 51t48 21q29 0 49 -21t20 -51q0 -21 -9.5 -44.5t-9.5 -42.5v-72l-3 -89l15 65l76 250h33l76 -249l16 -66l-3 89v386h39v-560h-41zM112 332q0 16 -10 27.5t-24 11.5t-23.5 -11.5
t-9.5 -27.5t9.5 -27.5t23.5 -11.5t24 11.5t10 27.5z" />
    <glyph glyph-name="uni0E20" unicode="&#xe20;" horiz-adv-x="406" 
d="M311 0v287q0 39 -27.5 61.5t-72.5 22.5q-37 0 -104 -35q34 -4 61 -11t47 -17v-30q-35 -3 -54 -28.5t-18 -61.5l3 -121q1 -30 -19 -51t-49 -21q-28 0 -48 21t-20 51q0 31 19.5 51.5t48.5 20.5q17 0 30 -8l-3 63q-3 73 64 101q-42 16 -106 16v28l63 42q44 24 91 24
q58 0 96 -31t38 -83v-291h-40zM111 66q0 16 -9.5 27.5t-23.5 11.5t-24 -11.5t-10 -27.5t10 -27.5t24 -11.5t23.5 11.5t9.5 27.5z" />
    <glyph glyph-name="uni0E21" unicode="&#xe21;" horiz-adv-x="395" 
d="M296 0q-51 74 -138 102q12 -16 12 -34q0 -31 -20.5 -52t-48.5 -21t-48.5 21t-20.5 52q0 33 24 55.5t60 21.5v124q-11 -8 -28 -8q-29 0 -48.5 20.5t-19.5 51.5q0 30 20 51t48 21q29 0 48.5 -20.5t19.5 -51.5v-195q88 -26 144 -89v351h40v-400h-44zM121 334q0 16 -9.5 27.5
t-23.5 11.5t-24 -11.5t-10 -27.5t10 -27.5t24 -11.5t23.5 11.5t9.5 27.5zM133 68q0 40 -32 40q-31 0 -31 -40t31 -40q32 0 32 40z" />
    <glyph glyph-name="uni0E22" unicode="&#xe22;" horiz-adv-x="390" 
d="M335 87q0 -40 -25 -63.5t-70 -23.5h-185v112q0 31 18 57t48 35q-33 6 -56 32q-29 32 -29 83q0 35 22.5 60.5t54.5 25.5t52.5 -19.5t20.5 -51.5q0 -29 -20.5 -49t-48.5 -20q-21 0 -29 6q4 -25 37.5 -39t76.5 -10v-35h-36q-32 0 -51.5 -25.5t-19.5 -63.5v-63h126
q75 0 75 69v296h39v-313v0zM152 335q0 15 -10.5 25.5t-25.5 10.5t-25.5 -10.5t-10.5 -25.5t10.5 -25.5t25.5 -10.5t25.5 10.5t10.5 25.5z" />
    <glyph glyph-name="uni0E23" unicode="&#xe23;" horiz-adv-x="335" 
d="M309 374q-25 -30 -56 -30q-22 0 -49 13q-14 7 -27 10t-24 4q-40 1 -93 -44q85 5 141 -17q74 -27 74 -90v-153q0 -30 -21 -51t-51 -21t-51 21t-21 51t21 51t51 21q17 0 32 -7v80q0 85 -174 85q-11 0 -24 -0.5t-27 -1.5v30q6 4 39 35q23 22 43 31q28 14 60 14q31 0 57 -13
q27 -13 39 -13q18 0 34 19l27 -24v0zM237 67q0 17 -10.5 28.5t-25.5 11.5t-25.5 -11.5t-10.5 -28.5t10.5 -28.5t25.5 -11.5t25.5 11.5t10.5 28.5z" />
    <glyph glyph-name="uni0E24" unicode="&#xe24;" horiz-adv-x="381" 
d="M287 -160v430q0 48 -30 74.5t-79 27.5q-42 1 -111 -37q67 -8 107 -27v-30q-35 -4 -57 -29t-22 -61v-57q11 8 28 8q29 0 48.5 -20.5t19.5 -51.5q0 -30 -20 -51t-48 -21q-29 0 -48.5 20.5t-19.5 51.5v119q0 79 75 107q-52 17 -108 18v28q16 11 32 21t33 21q44 24 94 24
q31 0 57.5 -9t46 -25.5t30.5 -39.5t11 -52v-439h-39zM157 66q0 16 -10 27.5t-24 11.5t-23.5 -11.5t-9.5 -27.5t9.5 -27.5t23.5 -11.5t24 11.5t10 27.5z" />
    <glyph glyph-name="uni0E25" unicode="&#xe25;" horiz-adv-x="389" 
d="M292 0q-21 114 -60 182q-38 68 -80 63q-30 -3 -48 -42q-17 -38 -15 -77q16 19 42 19q30 0 50.5 -22t20.5 -53t-21 -53t-50 -22t-52 24q-29 32 -29 101q0 63 28 109q29 47 73 50q81 5 130 -121l18 -62h2q-4 35 -5.5 56.5t-1.5 29.5v82q0 46 -24 74q-28 33 -82 33
q-79 0 -108 -81l-37 12q15 43 52 71q40 31 93 31q66 0 106 -35.5t40 -99.5v-269h-42zM168 69q0 17 -11 29.5t-26 12.5t-25.5 -12.5t-10.5 -29.5t10.5 -30t25.5 -13t26 13t11 30z" />
    <glyph glyph-name="uni0E26" unicode="&#xe26;" horiz-adv-x="406" 
d="M311 -160v447q0 39 -27.5 61.5t-72.5 22.5q-37 0 -104 -35q34 -4 61 -11t47 -17v-30q-35 -3 -54 -28.5t-18 -61.5l3 -121q1 -30 -19 -51t-49 -21q-28 0 -48 21t-20 51q0 31 19.5 51.5t48.5 20.5q17 0 30 -8l-3 63q-3 73 64 101q-42 16 -106 16v28l63 42q44 24 91 24
q58 0 96 -31t38 -83v-451h-40zM111 66q0 16 -9.5 27.5t-23.5 11.5t-24 -11.5t-10 -27.5t10 -27.5t24 -11.5t23.5 11.5t9.5 27.5z" />
    <glyph glyph-name="uni0E27" unicode="&#xe27;" horiz-adv-x="344" 
d="M289 67q0 -30 -21 -51t-51 -21t-51 21t-21 51t21 51t51 21q17 0 32 -7v138q0 48 -27.5 74.5t-72.5 26.5q-84 0 -112 -91l-37 11q15 49 55 81.5t94 32.5q63 0 101.5 -33t38.5 -96v-209v0zM251 67q0 17 -10.5 28.5t-25.5 11.5t-25.5 -11.5t-10.5 -28.5t10.5 -28.5
t25.5 -11.5t25.5 11.5t10.5 28.5z" />
    <glyph glyph-name="uni0E28" unicode="&#xe28;" horiz-adv-x="390" 
d="M340 439q-3 -43 -57 -63q52 -37 52 -107v-269h-40v263q0 47 -27 75q-30 33 -86 33q-24 0 -43.5 -8t-33.5 -21t-22 -30.5t-8 -37.5q1 -10 3 -26q2 -14 4 -33.5t4 -46.5q31 130 101 130q27 0 44.5 -18.5t17.5 -44.5q0 -27 -18.5 -46.5t-43.5 -19.5q-38 0 -53 37
q-34 -62 -31 -125q1 -32 -5 -81h-39q2 15 3.5 24.5t1.5 13.5q0 11 -1.5 29t-5.5 44q-4 20 -7 40.5t-6 40.5q-9 53 -9 88q0 52 43 88q43 37 105 37q39 0 73 -14q35 15 34 48h50v0zM215 235q0 28 -28 28q-27 0 -27 -28q0 -31 27 -31q28 0 28 31z" />
    <glyph glyph-name="uni0E29" unicode="&#xe29;" horiz-adv-x="421" 
d="M437 266q-4 -31 -24 -58q-23 -33 -57 -46v-68q0 -94 -111 -94h-208v35h51v209q0 10 5 18q-3 -1 -15 -1q-28 0 -48 21t-20 51t20 51t48 21q29 0 49 -21t20 -51q0 -21 -9.5 -44.5t-9.5 -42.5v-211h114q42 0 58 15t16 55v44q-5 -1 -21 -1q-52 0 -86 23t-34 62q0 26 17.5 44
t42.5 18q26 0 43.5 -18.5t17.5 -44.5q0 -27 -24 -47q18 -5 44 -2v217h40v-199q36 24 45 77l36 -12v0zM263 231q0 33 -28 33q-26 0 -26 -32q0 -34 26 -34q28 0 28 33zM112 332q0 16 -10 27.5t-24 11.5t-23.5 -11.5t-9.5 -27.5t9.5 -27.5t23.5 -11.5t24 11.5t10 27.5z" />
    <glyph glyph-name="uni0E2A" unicode="&#xe2a;" horiz-adv-x="389" 
d="M340 439q-3 -46 -56 -63q50 -35 50 -107v-269h-42q-21 114 -60 182q-38 68 -80 63q-30 -3 -48 -42q-17 -38 -15 -77q16 19 42 19q30 0 50.5 -22t20.5 -53t-21 -53t-50 -22t-52 24q-29 32 -29 101q0 63 28 109q29 47 73 50q81 5 130 -121l18 -62h2q-4 35 -5.5 56.5
t-1.5 29.5v82q0 46 -24 74q-28 33 -82 33q-79 0 -108 -81l-37 12q15 43 52 71q40 31 93 31q40 0 69 -13q33 14 33 48h50v0zM168 69q0 17 -11 29.5t-26 12.5t-25.5 -12.5t-10.5 -29.5t10.5 -30t25.5 -13t26 13t11 30z" />
    <glyph glyph-name="uni0E2B" unicode="&#xe2b;" horiz-adv-x="403" 
d="M357 330q0 -40 -34 -62q25 -22 25 -58v-210h-40v202q0 48 -28 52q-23 4 -40 -29l-110 -225h-42v244q0 10 5 18q-3 -1 -15 -1q-28 0 -48 21t-20 51t20 51t48 21q29 0 49 -21t20 -51q0 -21 -9.5 -44.5t-9.5 -42.5v-140q0 -6 -1 -18t-3 -30h2l15 38l68 144q12 25 31 32
q-26 21 -26 58q0 32 20.5 53.5t50.5 21.5t51 -21.5t21 -53.5zM321 330q0 17 -11 30t-26 13t-25.5 -13t-10.5 -30t10.5 -29.5t25.5 -12.5t26 12.5t11 29.5zM112 332q0 16 -10 27.5t-24 11.5t-23.5 -11.5t-9.5 -27.5t9.5 -27.5t23.5 -11.5t24 11.5t10 27.5z" />
    <glyph glyph-name="uni0E2C" unicode="&#xe2c;" horiz-adv-x="437" 
d="M416 398q-19 -34 -45 -60q6 -16 6 -30v-308h-41l-101 223l-107 -223h-40v244q0 10 5 18q-3 -1 -15 -1q-28 0 -48 21t-20 51t20 51t48 21q29 0 49 -21t20 -51q0 -21 -9.5 -44.5t-9.5 -42.5v-110q0 -13 -3 -78l20 54l73 153h33l70 -153l20 -54q-3 65 -3 78v176
q-28 -23 -72 -25q-33 -1 -57.5 16t-24.5 45q0 12 6.5 23.5t18 20t27 13.5t33.5 5q60 -2 85 -38q8 8 16.5 20t16.5 26l29 -20v0zM328 344q-19 33 -60 33q-18 0 -32 -8.5t-14 -20.5q0 -13 15 -20.5t33 -6.5q29 1 58 23zM112 332q0 16 -10 27.5t-24 11.5t-23.5 -11.5
t-9.5 -27.5t9.5 -27.5t23.5 -11.5t24 11.5t10 27.5z" />
    <glyph glyph-name="uni0E2D" unicode="&#xe2d;" horiz-adv-x="387" 
d="M332 88q0 -88 -87 -88h-185v208q0 31 19.5 51.5t48.5 20.5q28 0 48 -21t20 -51q0 -31 -19.5 -51.5t-48.5 -20.5q-17 0 -28 8v-109h128q38 0 50.5 13.5t12.5 48.5v176q0 43 -30.5 70.5t-78.5 27.5q-91 0 -126 -81l-37 13q47 102 163 102q66 0 108 -35.5t42 -95.5v-186v0z
M162 209q0 16 -10 27.5t-24 11.5t-23.5 -11.5t-9.5 -27.5t9.5 -27.5t23.5 -11.5t24 11.5t10 27.5z" />
    <glyph glyph-name="uni0E2E" unicode="&#xe2e;" horiz-adv-x="387" 
d="M309 349q23 -32 23 -75v-186q0 -88 -87 -88h-185v198q0 31 19.5 51.5t48.5 20.5q28 0 48 -21t20 -51q0 -31 -19.5 -51.5t-48.5 -20.5q-17 0 -28 8v-99h128q38 0 50.5 13.5t12.5 48.5v176q0 22 -11 46q-32 -29 -74 -29h-166v34q50 81 147 81q54 0 95 -29l29 34l31 -24z
M257 347q-27 24 -70 24q-58 0 -100 -47h109q35 0 61 23zM162 199q0 16 -10 27.5t-24 11.5t-23.5 -11.5t-9.5 -27.5t9.5 -27.5t23.5 -11.5t24 11.5t10 27.5z" />
    <glyph glyph-name="uni0E2F" unicode="&#xe2f;" horiz-adv-x="346" 
d="M252 0v325q0 39 -33 39q-13 -41 -47 -69q-37 -30 -85 -30q-36 0 -61.5 21.5t-25.5 52.5q0 28 19 47t44 19q26 0 44 -18t18 -45q0 -21 -13 -40q69 18 80 98h37q62 0 62 -64v-336h-39zM92 339q0 34 -29 34q-11 0 -20 -10t-9 -24q0 -13 9 -22t20 -9q29 0 29 31z" />
    <glyph glyph-name="uni0E30" unicode="&#xe30;" horiz-adv-x="325" 
d="M285 400q0 -55 -30 -93q-40 -51 -124 -51q-48 0 -74.5 23t-26.5 55q0 27 20 46.5t46 19.5q28 0 47.5 -19.5t19.5 -46.5q0 -26 -18 -44q48 3 75 32t26 78h39v0zM285 144q0 -55 -30 -93q-40 -51 -124 -51q-48 0 -74.5 23t-26.5 55q0 27 20 46.5t46 19.5q28 0 47.5 -19.5
t19.5 -46.5q0 -26 -18 -44q48 3 75 32t26 78h39v0zM129 334q0 32 -33 32q-31 0 -31 -32t31 -32q33 0 33 32zM129 78q0 32 -33 32q-31 0 -31 -32t31 -32q33 0 33 32z" />
    <glyph glyph-name="uni0E31" unicode="&#xe31;" 
d="M64 584q-6 -57 -50 -95q-47 -39 -116 -39q-54 0 -90 22.5t-36 57.5q0 25 17.5 42.5t41.5 17.5t41 -17t17 -42q0 -29 -24 -47q7 -1 13 -1h12q57 0 91 26.5t40 74.5h43v0zM-142 531q0 28 -27 28q-26 0 -26 -28t26 -28q27 0 27 28z" />
    <glyph glyph-name="uni0E32" unicode="&#xe32;" horiz-adv-x="326" 
d="M231 0v273q0 98 -95 98q-35 0 -62.5 -21.5t-37.5 -57.5l-36 14q14 42 50.5 70.5t84.5 28.5q63 0 99.5 -33t36.5 -93v-279h-40z" />
    <glyph glyph-name="uni0E33" unicode="&#xe33;" horiz-adv-x="326" 
d="M-8 518q0 -28 -19.5 -47.5t-47.5 -19.5t-47.5 19.5t-19.5 47.5t19.5 47.5t47.5 19.5t47.5 -19.5t19.5 -47.5zM231 0v273q0 98 -95 98q-35 0 -62.5 -21.5t-37.5 -57.5l-36 14q14 42 50.5 70.5t84.5 28.5q63 0 99.5 -33t36.5 -93v-279h-40zM-38 517q0 15 -11 26t-26 11
t-26 -11t-11 -26t11 -25.5t26 -10.5t26 10.5t11 25.5z" />
    <glyph glyph-name="uni0E34" unicode="&#xe34;" 
d="M-55 450q-108 12 -240 12q-13 0 -29 -0.5t-36 -1.5v26q11 12 23 24t23 25q35 32 80 33q37 1 71 -14q11 -5 31 -16.5t48 -30.5q8 -5 15 -9t14 -7v-41v0zM-109 485q-13 8 -25.5 16t-25.5 16q-35 21 -66 20q-31 -2 -53 -16q-6 -4 -35 -32q17 1 30 1.5t23 0.5q25 0 63 -2
t89 -6v2z" />
    <glyph glyph-name="uni0E35" unicode="&#xe35;" 
d="M-55 450q-108 12 -240 12q-13 0 -29 -0.5t-36 -1.5v26q11 12 23 24t23 25q35 32 80 33q18 1 34.5 -2.5t32.5 -10.5q11 -5 29 -15t43 -26v71h40v-135v0zM-109 485q-13 8 -25.5 16t-25.5 16q-35 21 -66 20q-31 -2 -53 -16q-6 -4 -35 -32q17 1 30 1.5t23 0.5q25 0 63 -2
t89 -6v2z" />
    <glyph glyph-name="uni0E36" unicode="&#xe36;" 
d="M-15 533q0 -34 -33 -52q5 -8 10 -32q-60 7 -122 10t-128 3q-13 0 -29 -0.5t-36 -1.5v26q11 12 23 24t23 25q35 32 80 33q47 2 95 -27q2 20 19 34.5t38 14.5q25 0 42.5 -16.5t17.5 -40.5zM-48 532q0 27 -27 27t-27 -27t27 -27t27 27zM-102 485q-13 8 -25.5 16t-25.5 16
q-35 21 -66 20q-31 -2 -53 -16q-6 -4 -35 -32q17 1 30 1.5t23 0.5q25 0 63 -2t89 -6v2z" />
    <glyph glyph-name="uni0E37" unicode="&#xe37;" 
d="M-55 450q-108 12 -240 12q-13 0 -29 -0.5t-36 -1.5v26q11 12 23 24t23 24q34 33 80 34q35 1 69 -14v31h40v-52q5 -3 12 -7.5t18 -11.5v71h40v-135v0zM-109 485q-13 8 -25.5 16t-25.5 16q-35 21 -66 20q-31 -2 -53 -16q-6 -4 -35 -32q17 1 30 1.5t23 0.5q25 0 63 -2t89 -6
v2z" />
    <glyph glyph-name="uni0E38" unicode="&#xe38;" 
d="M-95 -220v66q-10 -2 -15 -2q-23 0 -39 16.5t-16 40.5q0 25 16 42t39 17t39 -17t16 -42v-121h-40zM-87 -98q0 29 -24 29t-24 -29q0 -28 24 -28t24 28z" />
    <glyph glyph-name="uni0E39" unicode="&#xe39;" 
d="M-55 -186q0 -34 -33 -34h-97v66q-10 -2 -15 -2q-23 0 -39 16.5t-16 40.5q0 25 16 42t39 17t39 -17t16 -42v-86h35q15 0 15 16v124h40v-141v0zM-177 -98q0 29 -24 29t-24 -29q0 -28 24 -28t24 28z" />
    <glyph glyph-name="uni0E3A" unicode="&#xe3a;" 
d="M-40 -75q0 -14 -10.5 -24.5t-24.5 -10.5t-24.5 10.5t-10.5 24.5t10.5 24.5t24.5 10.5t24.5 -10.5t10.5 -24.5z" />
    <glyph glyph-name="uni0E3F" unicode="&#xe3f;" horiz-adv-x="410" 
d="M372 135q0 -77 -59 -115q-19 -13 -51 -18v-70h-21v68h-59v-68h-22v68h-146v31l64 1v414h-64v33l146 1v64h22v-64h44q12 0 15 -1v65h21v-68q98 -18 98 -111q0 -98 -83 -115q45 -7 70 -38t25 -77zM318 355q0 67 -56 85v-169q56 20 56 84zM241 444q-9 1 -16.5 1.5t-12.5 0.5
h-30v-183h22q19 0 37 3v178zM160 446h-41v-183h41v183zM330 128q0 80 -68 98v-187q68 20 68 89zM241 229q-9 1 -16.5 1.5t-13.5 0.5h-29v-199h28q5 0 13 0.5t18 1.5v195zM160 231h-41v-199h41v199z" />
    <glyph glyph-name="uni0E40" unicode="&#xe40;" horiz-adv-x="221" 
d="M211 67q0 -30 -20 -51t-48 -21q-29 0 -48.5 20.5t-19.5 51.5v333h40v-269q11 8 28 8q29 0 48.5 -20.5t19.5 -51.5zM177 66q0 16 -10 27.5t-24 11.5t-23.5 -11.5t-9.5 -27.5t9.5 -27.5t23.5 -11.5t24 11.5t10 27.5z" />
    <glyph glyph-name="uni0E41" unicode="&#xe41;" horiz-adv-x="388" 
d="M378 67q0 -30 -20 -51t-48 -21q-29 0 -48.5 20.5t-19.5 51.5v333h40v-269q11 8 28 8q29 0 48.5 -20.5t19.5 -51.5zM211 67q0 -30 -20 -51t-48 -21q-29 0 -48.5 20.5t-19.5 51.5v333h40v-269q11 8 28 8q29 0 48.5 -20.5t19.5 -51.5zM344 66q0 16 -10 27.5t-24 11.5
t-23.5 -11.5t-9.5 -27.5t9.5 -27.5t23.5 -11.5t24 11.5t10 27.5zM177 66q0 16 -10 27.5t-24 11.5t-23.5 -11.5t-9.5 -27.5t9.5 -27.5t23.5 -11.5t24 11.5t10 27.5z" />
    <glyph glyph-name="uni0E42" unicode="&#xe42;" horiz-adv-x="231" 
d="M234 661q-25 -28 -56 -28q-23 0 -53 13t-53 13q-22 0 -45 -14q-10 -7 -19 -13.5t-18 -13.5q73 -5 104 -28.5t31 -74.5v-384q11 8 28 8q29 0 48.5 -20.5t19.5 -51.5q0 -30 -20 -51t-48 -21q-29 0 -48.5 20.5t-19.5 51.5v446q0 46 -38 63q-31 14 -102 12v29q14 13 27 25
l26 24q36 29 79 28q11 -1 24.5 -4t27.5 -10q30 -12 41 -12q15 0 37 18l27 -25v0zM187 66q0 16 -10 27.5t-24 11.5t-23.5 -11.5t-9.5 -27.5t9.5 -27.5t23.5 -11.5t24 11.5t10 27.5z" />
    <glyph glyph-name="uni0E43" unicode="&#xe43;" horiz-adv-x="231" 
d="M221 67q0 -30 -20 -51t-48 -21q-29 0 -48.5 20.5t-19.5 51.5v420q0 31 21 64q22 34 22 54q0 28 -20 47t-49 19q-42 0 -59 -32q9 4 20 4q28 0 44.5 -18.5t16.5 -41.5q0 -25 -18 -43.5t-44 -18.5q-28 0 -47.5 21t-19.5 58q0 21 8.5 40t23 33.5t34 22.5t40.5 8q46 0 77 -26
t31 -69q0 -27 -21 -63q-20 -35 -20 -59v-356q8 8 28 8q29 0 48.5 -20.5t19.5 -51.5zM50 583q0 31 -31 31q-12 0 -20.5 -9.5t-8.5 -21.5q0 -32 29 -32q31 0 31 32zM187 66q0 16 -10 27.5t-24 11.5t-23.5 -11.5t-9.5 -27.5t9.5 -27.5t23.5 -11.5t24 11.5t10 27.5z" />
    <glyph glyph-name="uni0E44" unicode="&#xe44;" horiz-adv-x="231" 
d="M221 67q0 -30 -20 -51t-48 -21q-29 0 -48.5 20.5t-19.5 51.5v431q0 68 47 109q-12 15 -43 35q-5 -5 -8.5 -9t-7.5 -8q-16 -22 -22 -41l-34 -12q-24 59 -94 99l29 23q26 -16 46 -34.5t34 -39.5q16 34 53 67q57 -29 93 -74q-20 -17 -36 -46q-17 -36 -17 -65v-371q8 8 28 8
q29 0 48.5 -20.5t19.5 -51.5zM187 66q0 16 -10 27.5t-24 11.5t-23.5 -11.5t-9.5 -27.5t9.5 -27.5t23.5 -11.5t24 11.5t10 27.5z" />
    <glyph glyph-name="uni0E45" unicode="&#xe45;" horiz-adv-x="326" 
d="M231 -160v433q0 98 -95 98q-35 0 -62.5 -21.5t-37.5 -57.5l-36 14q14 42 50.5 70.5t84.5 28.5q63 0 99.5 -33t36.5 -93v-439h-40z" />
    <glyph glyph-name="uni0E46" unicode="&#xe46;" horiz-adv-x="361" 
d="M266 -160v446q0 58 -47 81l-45 -36l-55 37q-29 -12 -46 -56q13 7 30 7q26 0 44 -18.5t18 -42.5q0 -26 -18 -44.5t-45 -18.5q-29 0 -50.5 25t-21.5 67q0 21 7.5 40t20 35t29.5 27.5t36 15.5l50 -33l45 33q42 -11 65 -42t23 -70v-453h-40zM131 259q0 29 -29 29
q-12 0 -20.5 -9t-8.5 -20q0 -13 9 -22.5t20 -9.5q29 0 29 32z" />
    <glyph glyph-name="uni0E47" unicode="&#xe47;" 
d="M-46 628q-27 -42 -78 -40q-5 0 -12.5 0.5t-18.5 1.5t-17.5 1.5t-9.5 0.5q-76 0 -76 -53q0 -18 11 -29q10 13 34 30q9 -33 34 -46q-3 8 -3 13q0 21 14 34.5t36 13.5t35 -14t13 -31q0 -19 -16.5 -34t-43.5 -16q-55 -1 -79 40q-19 -18 -26 -38q-48 26 -48 81q0 39 30 60
t82 19q2 0 7.5 -0.5t15.5 -1.5t16 -1h8q42 0 56 30l36 -21v0zM-111 510q0 19 -21 20q-24 2 -24 -22q0 -20 21 -20q24 0 24 22z" />
    <glyph glyph-name="uni0E48" unicode="&#xe48;" 
d="M-95 615v93h40v-93h-40z" />
    <glyph glyph-name="uni0E49" unicode="&#xe49;" 
d="M32 738q-6 -54 -57.5 -88.5t-139.5 -34.5h-16v19q27 10 46 34q-21 1 -36 15.5t-15 34.5t15.5 36t36.5 16q23 0 38 -16t15 -37q0 -39 -43 -73q23 4 43 11t36 18q36 25 38 65h39v0zM-108 718q0 26 -26 26q-25 0 -25 -26q0 -25 25 -25q26 0 26 25z" />
    <glyph glyph-name="uni0E4A" unicode="&#xe4a;" 
d="M47 746q-17 -8 -25 -35q-3 -11 -6 -21.5t-7 -21.5q-17 -37 -51 -53l-25 8q16 20 16 44q0 30 -19 49l-23 -23l-32 30q-27 -7 -37 -29q8 2 13 2q18 0 29 -12.5t11 -27.5q0 -17 -12 -29t-28 -12q-20 0 -33.5 15t-13.5 39q0 64 74 81l28 -26l24 25q46 -16 46 -65
q0 -23 -5 -35l6 7q14 17 18 67q3 32 23 43l29 -20v0zM-131 656q0 20 -18 20t-18 -20t18 -20t18 20z" />
    <glyph glyph-name="uni0E4B" unicode="&#xe4b;" 
d="M-55 659v-44h-40v44h-46v30h46v44h40v-44h46v-30h-46z" />
    <glyph glyph-name="uni0E4C" unicode="&#xe4c;" 
d="M-19 712q-8 -23 -41 -35q-11 -4 -22.5 -8t-22.5 -8q39 -6 39 -44q0 -18 -13.5 -31t-31.5 -13q-20 0 -35 14t-15 36q0 46 58 65q46 15 53 40l31 -16v0zM-91 617q0 21 -21 21t-21 -21q0 -22 21 -22t21 22z" />
    <glyph glyph-name="uni0E4D" unicode="&#xe4d;" 
d="M-8 518q0 -28 -19.5 -47.5t-47.5 -19.5t-47.5 19.5t-19.5 47.5t19.5 47.5t47.5 19.5t47.5 -19.5t19.5 -47.5zM-38 517q0 15 -11 26t-26 11t-26 -11t-11 -26t11 -25.5t26 -10.5t26 10.5t11 25.5z" />
    <glyph glyph-name="uni0E4E" unicode="&#xe4e;" 
 />
    <glyph glyph-name="uni0E4F" unicode="&#xe4f;" horiz-adv-x="460" 
d="M435 200q0 -85 -60 -145t-145 -60t-145 60t-60 145t60 145t145 60t145 -60t60 -145zM405 200q0 72 -52 123q-51 52 -123 52t-124 -52q-51 -51 -51 -123q0 -71 51 -124q53 -51 124 -51q72 0 123 51q52 52 52 124zM355 200q0 -52 -37 -89q-36 -36 -88 -36q-51 0 -89 36
q-36 38 -36 89q0 52 36 88q37 37 89 37t88 -37q37 -36 37 -88zM325 200q0 20 -7.5 37t-20.5 30t-30 20.5t-37 7.5q-19 0 -36.5 -7.5t-30.5 -20.5t-20.5 -30t-7.5 -37q0 -19 7.5 -36.5t20.5 -30.5t30.5 -20.5t36.5 -7.5q20 0 37 7.5t30 20.5t20.5 30.5t7.5 36.5z" />
    <glyph glyph-name="uni0E50" unicode="&#xe50;" horiz-adv-x="375" 
d="M340 158q0 -67 -45 -115t-108 -48t-108 49q-44 50 -44 117t44 116q45 49 108 49q66 0 109 -49q44 -49 44 -119zM301 159q0 29 -9 53t-24 41.5t-36 27.5t-45 10q-47 0 -80 -38q-33 -37 -33 -92t33 -93q35 -38 80 -38q47 0 80 37q34 37 34 92z" />
    <glyph glyph-name="uni0E51" unicode="&#xe51;" horiz-adv-x="372" 
d="M337 176q0 -82 -57 -144q-56 -61 -152 -76l-9 30q76 10 129 62q52 51 52 120q0 55 -32 89t-83 34q-47 0 -80 -33q-32 -32 -32 -75q0 -26 14.5 -51t39.5 -30q-15 15 -15 38q0 29 17.5 48t45.5 19t45.5 -18.5t17.5 -47.5q0 -33 -25 -55.5t-61 -22.5q-24 0 -45.5 9
t-37.5 25.5t-25 38.5t-9 47q0 57 44 98q46 41 110 41t106 -42q42 -40 42 -104zM207 141q0 33 -32 33t-32 -33q0 -34 32 -34t32 34z" />
    <glyph glyph-name="uni0E52" unicode="&#xe52;" horiz-adv-x="462" 
d="M417 82q0 -82 -79 -82h-214q-79 0 -79 82v232q0 57 -33 82l37 20q36 -25 36 -83v-236q0 -64 60 -64h172q60 0 60 64v139q0 49 -33 49q-35 0 -35 -44v-32h-36v28q0 47 -41 47q-24 0 -40 -26.5t-16 -59.5q0 -13 3 -24q10 13 34 13t40.5 -17t16.5 -42t-16.5 -42t-40.5 -17
q-32 0 -51 28q-25 34 -25 100q0 55 31 89q27 31 61 31q41 0 62 -34q18 34 59 34q29 0 48 -19.5t19 -50.5v-165v0zM242 128q0 30 -29 30t-29 -30t29 -30t29 30z" />
    <glyph glyph-name="uni0E53" unicode="&#xe53;" horiz-adv-x="440" 
d="M354 0v219q0 67 -52 67q-21 0 -35.5 -18.5t-14.5 -48.5v-219h-37v216q0 30 -16 50t-40 20q-40 0 -63 -45q-21 -40 -21 -94q0 -24 4 -41q15 15 40 15t42.5 -18t17.5 -45t-17 -45t-43 -18q-35 0 -58 38q-26 44 -26 120q0 74 39 123q35 44 81 44q58 0 79 -51q21 51 75 51
q37 0 61.5 -26t24.5 -68v-226h-41zM148 58q0 32 -29 32t-29 -32t29 -32t29 32z" />
    <glyph glyph-name="uni0E54" unicode="&#xe54;" horiz-adv-x="388" 
d="M398 415q-3 -84 -74 -113q-30 -13 -135 -23q-113 -12 -113 -127q0 -54 27.5 -88t67.5 -34q28 0 41 6q-63 38 -63 104q0 32 19 53.5t48 21.5q26 0 45 -19t19 -47t-18 -48q-19 -22 -55 -20q68 -58 156 -52v-30l-14 -1q-48 -4 -107 23q-32 -23 -76 -23q-56 0 -94 44
q-37 44 -37 113q0 52 24 91t66 54q22 7 115 18q64 7 89.5 28t26.5 69h42v0zM249 147q0 35 -33 35t-33 -35q0 -36 33 -36t33 36z" />
    <glyph glyph-name="uni0E55" unicode="&#xe55;" horiz-adv-x="388" 
d="M398 415q-3 -84 -74 -113q-30 -13 -135 -23q-113 -12 -113 -127q0 -54 27.5 -88t67.5 -34q28 0 41 6q-63 38 -63 104q0 32 19 53.5t48 21.5q26 0 45 -19t19 -47t-18 -48q-19 -22 -55 -20q68 -58 156 -52v-30l-14 -1q-48 -4 -107 23q-32 -23 -76 -23q-56 0 -94 44
q-37 44 -37 113q0 52 24 91t66 54q5 2 17 4.5t29 6.5q-19 15 -19 42q0 24 19.5 42.5t46.5 18.5t46.5 -17t19.5 -42q0 -18 -7 -31q42 9 60 30t19 61h42v0zM249 351q0 32 -32 32t-32 -32q0 -33 32 -33t32 33zM249 147q0 35 -33 35t-33 -35q0 -36 33 -36t33 36z" />
    <glyph glyph-name="uni0E56" unicode="&#xe56;" horiz-adv-x="370" 
d="M335 195q0 -72 -53 -134q-52 -61 -114 -61q-29 0 -49 19.5t-20 47.5q0 27 18.5 46.5t44.5 19.5q28 0 46.5 -19t18.5 -53q66 56 66 134q0 42 -24.5 66t-66.5 24q-93 0 -134 -86l-37 9q1 9 1 18v19q0 108 -31 155l41 16q34 -64 27 -161q57 68 141 63q55 -2 90 -35.5
t35 -87.5zM194 67q0 33 -31 33t-31 -33q0 -34 31 -34t31 34z" />
    <glyph glyph-name="uni0E57" unicode="&#xe57;" horiz-adv-x="525" 
d="M509 399q-23 -29 -23 -94q0 -9 0.5 -21.5t1.5 -29.5q3 -37 3 -51q4 -183 -129 -205l-30 27q22 23 22 63v131q0 67 -52 67q-21 0 -35.5 -18.5t-14.5 -48.5v-219h-37v216q0 30 -16 50t-40 20q-40 0 -63 -45q-21 -40 -21 -94q0 -24 4 -41q15 15 40 15t42.5 -18t17.5 -45
t-17 -45t-43 -18q-35 0 -58 38q-26 44 -26 120q0 74 39 123q35 44 81 44q58 0 79 -51q21 51 75 51q37 0 61.5 -26t24.5 -68v-134q0 -36 -14 -56l14 6q59 33 59 147q0 11 -1.5 28t-3.5 40t-3 40t-1 28q0 60 24 91l40 -17v0zM148 58q0 32 -29 32t-29 -32t29 -32t29 32z" />
    <glyph glyph-name="uni0E58" unicode="&#xe58;" horiz-adv-x="390" 
d="M382 415q-11 -130 -168 -131q-76 -1 -108.5 -30.5t-32.5 -93.5q0 -76 36 -117q1 55 34 98h30q2 -12 8 -26t15 -28t19.5 -25.5t22.5 -19.5q-9 14 -9 31q0 27 19 45.5t43 18.5q29 0 47 -18.5t18 -45.5q0 -32 -23.5 -54t-58.5 -22q-42 0 -77 32q-33 28 -42 67
q-22 -35 -17 -96h-43q-60 66 -60 165q0 154 179 154q125 0 129 96h39v0zM321 72q0 33 -30 33t-30 -33q0 -34 30 -34t30 34z" />
    <glyph glyph-name="uni0E59" unicode="&#xe59;" horiz-adv-x="402" 
d="M403 398q-34 -35 -34 -120q0 -10 0.5 -20t1.5 -21l-32 -19q-6 12 -14.5 24t-18.5 21t-20.5 14t-19.5 4q-27 -2 -20 -45q6 -43 58 -142q24 -47 64 -65l-25 -29q-27 9 -47 38q-8 11 -20.5 34t-29.5 58q-73 150 -131 150q-40 0 -40 -74q0 -56 20 -107q19 28 52 28
q27 0 45.5 -19.5t18.5 -47.5t-18.5 -46.5t-45.5 -18.5q-42 0 -72 50q-40 67 -40 165q0 49 21 77.5t56 28.5q47 0 102 -70q-1 5 -1 14q0 57 50 57q47 0 75 -45q-3 21 -3 42q0 71 31 101l37 -17v0zM178 60q0 33 -31 33t-31 -33q0 -34 31 -34t31 34z" />
    <glyph glyph-name="uni0E5A" unicode="&#xe5a;" 
 />
    <glyph glyph-name="uni0E5B" unicode="&#xe5b;" 
 />
    <glyph glyph-name="zero" unicode="0" horiz-adv-x="350" 
d="M321 240q0 -249 -148 -249q-144 0 -144 255q0 243 147 243q145 0 145 -249zM277 240q0 214 -102 214t-102 -211q0 -215 102 -215t102 212z" />
    <glyph glyph-name="one" unicode="1" horiz-adv-x="350" 
d="M103 0v31h73v405q-34 -38 -104 -90l-23 26q57 39 126 108h42v-449h70v-31h-184z" />
    <glyph glyph-name="two" unicode="2" horiz-adv-x="350" 
d="M277 108h38v-108h-290v48l129 139q28 30 45.5 50.5t25.5 31.5q37 50 37 96q0 39 -23.5 63.5t-63.5 24.5q-45 0 -71 -35q-21 -30 -24 -77h-41q2 64 37.5 105t99.5 41q58 0 94 -33t36 -90q0 -67 -81 -154l-164 -177h216v75z" />
    <glyph glyph-name="three" unicode="3" horiz-adv-x="350" 
d="M313 121q0 -56 -41 -94q-40 -36 -99 -36q-66 0 -102 40.5t-36 104.5h43q0 -44 24 -76q25 -34 71 -34q40 0 67 28t28 67q2 105 -118 108v32q114 3 114 97q0 42 -24 69.5t-67 27.5t-69 -32q-23 -29 -24 -71h-41q7 136 136 136q60 0 96 -36t36 -94q0 -91 -88 -113
q94 -22 94 -124z" />
    <glyph glyph-name="four" unicode="4" horiz-adv-x="350" 
d="M268 137v-107h62v-30h-176v30h74v107h-216v46l205 297h51v-312h68v-31h-68zM228 437l-181 -269h181v269z" />
    <glyph glyph-name="five" unicode="5" horiz-adv-x="350" 
d="M323 153q0 -68 -35 -112q-39 -49 -109 -49q-63 0 -99 38.5t-36 98.5h42q9 -104 95 -104q50 0 77 43q23 35 23 87q0 51 -22 82q-25 37 -76 37q-73 0 -92 -73h-41l10 279h244v-32h-207l-10 -194q36 54 102 54q67 0 103 -47q31 -40 31 -108z" />
    <glyph glyph-name="six" unicode="6" horiz-adv-x="350" 
d="M322 141q0 -62 -41 -106q-40 -43 -104 -43q-78 0 -116 69q-29 53 -29 136q0 291 162 291q110 0 121 -125h-40q-5 92 -81 92q-113 0 -120 -220q38 68 109 68q70 0 107 -49q32 -44 32 -113zM279 149q0 49 -23 83q-25 39 -75 39q-48 0 -77 -38q-25 -34 -25 -84q0 -49 23 -84
q27 -40 76 -40q51 0 78 38q23 35 23 86z" />
    <glyph glyph-name="seven" unicode="7" horiz-adv-x="350" 
d="M323 443q-54 -118 -99 -228.5t-82 -214.5h-44q46 124 92 235t93 211h-217v-84h-37v118h294v-37v0z" />
    <glyph glyph-name="eight" unicode="8" horiz-adv-x="350" 
d="M315 125q0 -57 -39 -95q-38 -37 -98 -37q-64 0 -103.5 36t-39.5 97q0 99 90 124q-84 24 -84 118q0 57 37 89.5t97 32.5q61 0 98.5 -33t37.5 -90q0 -90 -83 -117q87 -24 87 -125zM269 367q0 42 -24.5 66.5t-69.5 24.5q-42 0 -67.5 -25.5t-25.5 -65.5q0 -45 22 -71
q26 -30 69 -30q96 0 96 101zM273 130q0 46 -25 75.5t-73 29.5t-73 -29.5t-25 -77.5q0 -43 27 -73t72 -30t71 30t26 75z" />
    <glyph glyph-name="nine" unicode="9" horiz-adv-x="350" 
d="M320 283q0 -291 -161 -291q-57 0 -88.5 35t-33.5 90h40q0 -37 22 -64t60 -27q110 0 119 219q-37 -67 -110 -67q-70 0 -106 48q-32 44 -32 113q0 63 40 106t105 43q78 0 116 -68q29 -53 29 -137zM273 332q0 49 -23 84q-27 39 -76 39q-52 0 -79 -38q-23 -34 -23 -86
q0 -49 23 -83q26 -39 75 -39q50 0 78 39q25 34 25 84z" />
    <glyph glyph-name="exclamdown" unicode="&#xa1;" 
 />
    <glyph glyph-name="cent" unicode="&#xa2;" 
 />
    <glyph glyph-name="sterling" unicode="&#xa3;" 
 />
    <glyph glyph-name="currency" unicode="&#xa4;" 
 />
    <glyph glyph-name="yen" unicode="&#xa5;" 
 />
    <glyph glyph-name="brokenbar" unicode="&#xa6;" 
 />
    <glyph glyph-name="section" unicode="&#xa7;" 
 />
    <glyph glyph-name="dieresis" unicode="&#xa8;" 
 />
    <glyph glyph-name="copyright" unicode="&#xa9;" 
 />
    <glyph glyph-name="ordfeminine" unicode="&#xaa;" 
 />
    <glyph glyph-name="guillemotleft" unicode="&#xab;" horiz-adv-x="298" 
d="M211 22l-57 147l57 146h34l-54 -146l54 -147h-34zM108 22l-56 147l56 146h35l-53 -146l53 -147h-35z" />
    <glyph glyph-name="logicalnot" unicode="&#xac;" 
 />
    <glyph glyph-name="macron" unicode="&#xaf;" 
 />
    <glyph glyph-name="degree" unicode="&#xb0;" 
 />
    <glyph glyph-name="plusminus" unicode="&#xb1;" 
 />
    <glyph glyph-name="two.superior" unicode="&#xb2;" 
 />
    <glyph glyph-name="three.superior" unicode="&#xb3;" 
 />
    <glyph glyph-name="acute" unicode="&#xb4;" 
 />
    <glyph glyph-name="mu" unicode="&#xb5;" 
 />
    <glyph glyph-name="paragraph" unicode="&#xb6;" 
 />
    <glyph glyph-name="periodcentered" unicode="&#xb7;" 
 />
    <glyph glyph-name="cedilla" unicode="&#xb8;" 
 />
    <glyph glyph-name="one.superior" unicode="&#xb9;" 
 />
    <glyph glyph-name="ordmasculine" unicode="&#xba;" 
 />
    <glyph glyph-name="guillemotright" unicode="&#xbb;" horiz-adv-x="298" 
d="M189 21h-34l53 146l-53 147h34l57 -147zM87 21h-34l54 146l-54 147h34l57 -147z" />
    <glyph glyph-name="onequarter" unicode="&#xbc;" 
 />
    <glyph glyph-name="onehalf" unicode="&#xbd;" 
 />
    <glyph glyph-name="threequarters" unicode="&#xbe;" 
 />
    <glyph glyph-name="questiondown" unicode="&#xbf;" 
 />
    <glyph glyph-name="Agrave" unicode="&#xc0;" 
 />
    <glyph glyph-name="Aacute" unicode="&#xc1;" 
 />
    <glyph glyph-name="Acircumflex" unicode="&#xc2;" 
 />
    <glyph glyph-name="Atilde" unicode="&#xc3;" 
 />
    <glyph glyph-name="Adieresis" unicode="&#xc4;" 
 />
    <glyph glyph-name="Aring" unicode="&#xc5;" 
 />
    <glyph glyph-name="AE" unicode="&#xc6;" 
 />
    <glyph glyph-name="Ccedilla" unicode="&#xc7;" 
 />
    <glyph glyph-name="Egrave" unicode="&#xc8;" 
 />
    <glyph glyph-name="Eacute" unicode="&#xc9;" 
 />
    <glyph glyph-name="Ecircumflex" unicode="&#xca;" 
 />
    <glyph glyph-name="Edieresis" unicode="&#xcb;" 
 />
    <glyph glyph-name="Igrave" unicode="&#xcc;" 
 />
    <glyph glyph-name="Iacute" unicode="&#xcd;" 
 />
    <glyph glyph-name="Icircumflex" unicode="&#xce;" 
 />
    <glyph glyph-name="Idieresis" unicode="&#xcf;" 
 />
    <glyph glyph-name="Eth" unicode="&#xd0;" 
 />
    <glyph glyph-name="Ntilde" unicode="&#xd1;" 
 />
    <glyph glyph-name="Ograve" unicode="&#xd2;" 
 />
    <glyph glyph-name="Oacute" unicode="&#xd3;" 
 />
    <glyph glyph-name="Ocircumflex" unicode="&#xd4;" 
 />
    <glyph glyph-name="Otilde" unicode="&#xd5;" 
 />
    <glyph glyph-name="Odieresis" unicode="&#xd6;" 
 />
    <glyph glyph-name="multiply" unicode="&#xd7;" horiz-adv-x="350" 
d="M292 320l28 -28l-117 -117l117 -117l-28 -28l-117 117l-117 -117l-28 28l117 117l-117 117l28 28l117 -117z" />
    <glyph glyph-name="Oslash" unicode="&#xd8;" 
 />
    <glyph glyph-name="Ugrave" unicode="&#xd9;" 
 />
    <glyph glyph-name="Uacute" unicode="&#xda;" 
 />
    <glyph glyph-name="Ucircumflex" unicode="&#xdb;" 
 />
    <glyph glyph-name="Udieresis" unicode="&#xdc;" 
 />
    <glyph glyph-name="Yacute" unicode="&#xdd;" 
 />
    <glyph glyph-name="Thorn" unicode="&#xde;" 
 />
    <glyph glyph-name="germandbls" unicode="&#xdf;" 
 />
    <glyph glyph-name="agrave" unicode="&#xe0;" 
 />
    <glyph glyph-name="aacute" unicode="&#xe1;" 
 />
    <glyph glyph-name="acircumflex" unicode="&#xe2;" 
 />
    <glyph glyph-name="atilde" unicode="&#xe3;" 
 />
    <glyph glyph-name="adieresis" unicode="&#xe4;" 
 />
    <glyph glyph-name="aring" unicode="&#xe5;" 
 />
    <glyph glyph-name="ae" unicode="&#xe6;" 
 />
    <glyph glyph-name="ccedilla" unicode="&#xe7;" 
 />
    <glyph glyph-name="egrave" unicode="&#xe8;" 
 />
    <glyph glyph-name="eacute" unicode="&#xe9;" 
 />
    <glyph glyph-name="ecircumflex" unicode="&#xea;" 
 />
    <glyph glyph-name="edieresis" unicode="&#xeb;" 
 />
    <glyph glyph-name="igrave" unicode="&#xec;" 
 />
    <glyph glyph-name="iacute" unicode="&#xed;" 
 />
    <glyph glyph-name="icircumflex" unicode="&#xee;" 
 />
    <glyph glyph-name="idieresis" unicode="&#xef;" 
 />
    <glyph glyph-name="eth" unicode="&#xf0;" 
 />
    <glyph glyph-name="ntilde" unicode="&#xf1;" 
 />
    <glyph glyph-name="ograve" unicode="&#xf2;" 
 />
    <glyph glyph-name="oacute" unicode="&#xf3;" 
 />
    <glyph glyph-name="ocircumflex" unicode="&#xf4;" 
 />
    <glyph glyph-name="otilde" unicode="&#xf5;" 
 />
    <glyph glyph-name="odieresis" unicode="&#xf6;" 
 />
    <glyph glyph-name="divide" unicode="&#xf7;" horiz-adv-x="350" 
d="M211 281q0 -15 -10.5 -25.5t-25.5 -10.5t-25.5 10.5t-10.5 25.5t10.5 25.5t25.5 10.5t25.5 -10.5t10.5 -25.5zM20 155v40h310v-40h-310zM211 69q0 -15 -10.5 -25.5t-25.5 -10.5t-25.5 10.5t-10.5 25.5t10.5 25.5t25.5 10.5t25.5 -10.5t10.5 -25.5z" />
    <glyph glyph-name="oslash" unicode="&#xf8;" 
 />
    <glyph glyph-name="ugrave" unicode="&#xf9;" 
 />
    <glyph glyph-name="uacute" unicode="&#xfa;" 
 />
    <glyph glyph-name="ucircumflex" unicode="&#xfb;" 
 />
    <glyph glyph-name="udieresis" unicode="&#xfc;" 
 />
    <glyph glyph-name="yacute" unicode="&#xfd;" 
 />
    <glyph glyph-name="thorn" unicode="&#xfe;" 
 />
    <glyph glyph-name="ydieresis" unicode="&#xff;" 
 />
    <glyph glyph-name="dotlessi" unicode="&#x131;" 
 />
    <glyph glyph-name="Lslash" unicode="&#x141;" 
 />
    <glyph glyph-name="lslash" unicode="&#x142;" 
 />
    <glyph glyph-name="OE" unicode="&#x152;" 
 />
    <glyph glyph-name="oe" unicode="&#x153;" 
 />
    <glyph glyph-name="Scaron" unicode="&#x160;" 
 />
    <glyph glyph-name="scaron" unicode="&#x161;" 
 />
    <glyph glyph-name="Ydieresis" unicode="&#x178;" 
 />
    <glyph glyph-name="Zcaron" unicode="&#x17d;" 
 />
    <glyph glyph-name="zcaron" unicode="&#x17e;" 
 />
    <glyph glyph-name="florin" unicode="&#x192;" 
 />
    <glyph glyph-name="circumflex" unicode="&#x2c6;" 
 />
    <glyph glyph-name="caron" unicode="&#x2c7;" 
 />
    <glyph glyph-name="breve" unicode="&#x2d8;" 
 />
    <glyph glyph-name="dotaccent" unicode="&#x2d9;" 
 />
    <glyph glyph-name="ring" unicode="&#x2da;" horiz-adv-x="326" 
d="M233 436q0 -28 -19.5 -47.5t-47.5 -19.5t-47.5 19.5t-19.5 47.5t19.5 47.5t47.5 19.5t47.5 -19.5t19.5 -47.5zM203 435q0 15 -11 26t-26 11t-26 -11t-11 -26t11 -25.5t26 -10.5t26 10.5t11 25.5z" />
    <glyph glyph-name="ogonek" unicode="&#x2db;" 
 />
    <glyph glyph-name="tilde" unicode="&#x2dc;" 
 />
    <glyph glyph-name="hungarumlaut" unicode="&#x2dd;" 
 />
    <glyph glyph-name="endash" unicode="&#x2013;" horiz-adv-x="350" 
d="M20 155v40h310v-40h-310z" />
    <glyph glyph-name="emdash" unicode="&#x2014;" horiz-adv-x="700" 
d="M20 155v40h660v-40h-660z" />
    <glyph glyph-name="quoteleft" unicode="&#x2018;" horiz-adv-x="180" 
d="M138 467q-42 -22 -60 -69q4 4 19 4t26.5 -11t11.5 -27t-12 -28.5t-30 -12.5q-22 0 -35 16t-13 38q0 65 76 108l17 -18v0z" />
    <glyph glyph-name="quoteright" unicode="&#x2019;" horiz-adv-x="180" 
d="M135 431q0 -65 -76 -108l-17 18q42 23 60 69q-4 -4 -19 -4t-26.5 11t-11.5 27t12 28.5t30 12.5q22 0 35 -16t13 -38z" />
    <glyph glyph-name="quotesinglbase" unicode="&#x201a;" 
 />
    <glyph glyph-name="quotedblleft" unicode="&#x201c;" horiz-adv-x="300" 
d="M258 467q-42 -22 -60 -69q4 4 19 4t26.5 -11t11.5 -27t-12 -28.5t-30 -12.5q-22 0 -35 16t-13 38q0 65 76 108l17 -18v0zM138 467q-42 -22 -60 -69q4 4 19 4t26.5 -11t11.5 -27t-12 -28.5t-30 -12.5q-22 0 -35 16t-13 38q0 65 76 108l17 -18v0z" />
    <glyph glyph-name="quotedblright" unicode="&#x201d;" horiz-adv-x="300" 
d="M255 431q0 -65 -76 -108l-17 18q42 23 60 69q-4 -4 -19 -4t-26.5 11t-11.5 27t12 28.5t30 12.5q22 0 35 -16t13 -38zM135 431q0 -65 -76 -108l-17 18q42 23 60 69q-4 -4 -19 -4t-26.5 11t-11.5 27t12 28.5t30 12.5q22 0 35 -16t13 -38z" />
    <glyph glyph-name="quotedblbase" unicode="&#x201e;" 
 />
    <glyph glyph-name="dagger" unicode="&#x2020;" 
 />
    <glyph glyph-name="daggerdbl" unicode="&#x2021;" 
 />
    <glyph glyph-name="bullet" unicode="&#x2022;" horiz-adv-x="460" 
d="M435 200q0 -85 -60 -145t-145 -60t-145 60t-60 145t60 145t145 60t145 -60t60 -145z" />
    <glyph glyph-name="ellipsis" unicode="&#x2026;" horiz-adv-x="559" 
d="M440 0v50h51v-50h-51zM254 0v50h50v-50h-50zM67 0v50h51v-50h-51z" />
    <glyph glyph-name="perthousand" unicode="&#x2030;" 
 />
    <glyph glyph-name="minute" unicode="&#x2032;" 
 />
    <glyph glyph-name="second" unicode="&#x2033;" 
 />
    <glyph glyph-name="guilsinglleft" unicode="&#x2039;" 
 />
    <glyph glyph-name="guilsinglright" unicode="&#x203a;" 
 />
    <glyph glyph-name="fraction" unicode="&#x2044;" 
 />
    <glyph glyph-name="Euro" unicode="&#x20ac;" 
 />
    <glyph glyph-name="afii61289" unicode="&#x2113;" 
 />
    <glyph glyph-name="trademark" unicode="&#x2122;" 
 />
    <glyph glyph-name="Ohm" unicode="&#x2126;" 
 />
    <glyph glyph-name="estimated" unicode="&#x212e;" 
 />
    <glyph glyph-name="partialdiff" unicode="&#x2202;" 
 />
    <glyph glyph-name="uni2206" unicode="&#x2206;" 
 />
    <glyph glyph-name="product" unicode="&#x220f;" 
 />
    <glyph glyph-name="summation" unicode="&#x2211;" 
 />
    <glyph glyph-name="minus" unicode="&#x2212;" horiz-adv-x="350" 
d="M20 155v40h310v-40h-310z" />
    <glyph glyph-name="radical" unicode="&#x221a;" 
 />
    <glyph glyph-name="infinity" unicode="&#x221e;" 
 />
    <glyph glyph-name="integral" unicode="&#x222b;" 
 />
    <glyph glyph-name="approxequal" unicode="&#x2248;" 
 />
    <glyph glyph-name="notequal" unicode="&#x2260;" 
 />
    <glyph glyph-name="lessequal" unicode="&#x2264;" 
 />
    <glyph glyph-name="greaterequal" unicode="&#x2265;" 
 />
    <glyph glyph-name="lozenge" unicode="&#x25ca;" 
 />
    <glyph glyph-name="dottedcircle" unicode="&#x25cc;" 
 />
    <glyph glyph-name="uni0E10.alt1" unicode="&#xf700;" horiz-adv-x="349" 
d="M308 374q-26 -29 -56 -29q-19 0 -48 12q-14 7 -27.5 10t-24.5 4q-30 1 -56 -14q-7 -4 -17 -12t-24 -21q13 1 25 1.5t23 0.5q191 0 191 -105v-221h-40q-33 89 -81 165q-5 -16 -18 -29q-16 -18 -39 -18q-27 0 -47 20t-20 50q0 27 19.5 46.5t46.5 19.5q40 0 69 -41
q23 -32 37.5 -57.5t21.5 -45.5l16 -47q-2 17 -3.5 28t-1.5 18v109q0 76 -175 76q-32 0 -79 -3v27l60 54q41 33 93 33q27 0 54 -13q30 -12 36 -12q21 0 37 19l28 -25v0zM144 185q0 36 -31 36q-30 0 -30 -35q0 -34 30 -34q12 0 21.5 10.5t9.5 22.5z" />
    <glyph glyph-name="uni0E34.alt1" unicode="&#xf701;" 
d="M-135 450q-108 12 -240 12q-13 0 -29 -0.5t-36 -1.5v26q11 12 23 24t23 25q35 32 80 33q37 1 71 -14q11 -5 31 -16.5t48 -30.5q8 -5 15 -9t14 -7v-41v0zM-189 485q-13 8 -25.5 16t-25.5 16q-35 21 -66 20q-31 -2 -53 -16q-6 -4 -35 -32q17 1 30 1.5t23 0.5q25 0 63 -2
t89 -6v2z" />
    <glyph glyph-name="uni0E35.alt1" unicode="&#xf702;" 
d="M-135 450q-108 12 -240 12q-13 0 -29 -0.5t-36 -1.5v26q11 12 23 24t23 25q35 32 80 33q18 1 34.5 -2.5t32.5 -10.5q11 -5 29 -15t43 -26v71h40v-135v0zM-189 485q-13 8 -25.5 16t-25.5 16q-35 21 -66 20q-31 -2 -53 -16q-6 -4 -35 -32q17 1 30 1.5t23 0.5q25 0 63 -2
t89 -6v2z" />
    <glyph glyph-name="uni0E36.alt1" unicode="&#xf703;" 
d="M-112 533q0 -34 -33 -52q5 -8 10 -32q-60 7 -122 10t-128 3q-13 0 -29 -0.5t-36 -1.5v26q11 12 23 24t23 25q35 32 80 33q47 2 95 -27q2 20 19 34.5t38 14.5q25 0 42.5 -16.5t17.5 -40.5zM-145 532q0 27 -27 27t-27 -27t27 -27t27 27zM-199 485q-13 8 -25.5 16t-25.5 16
q-35 21 -66 20q-31 -2 -53 -16q-6 -4 -35 -32q17 1 30 1.5t23 0.5q25 0 63 -2t89 -6v2z" />
    <glyph glyph-name="uni0E37.alt1" unicode="&#xf704;" 
d="M-135 450q-108 12 -240 12q-13 0 -29 -0.5t-36 -1.5v26q11 12 23 24t23 24q34 33 80 34q35 1 69 -14v31h40v-52q5 -3 12 -7.5t18 -11.5v71h40v-135v0zM-189 485q-13 8 -25.5 16t-25.5 16q-35 21 -66 20q-31 -2 -53 -16q-6 -4 -35 -32q17 1 30 1.5t23 0.5q25 0 63 -2
t89 -6v2z" />
    <glyph glyph-name="uni0E48.alt1" unicode="&#xf705;" 
d="M-195 460v123h40v-123h-40z" />
    <glyph glyph-name="uni0E49.alt1" unicode="&#xf706;" 
d="M-87 597q-7 -60 -63 -98q-59 -39 -156 -39h-18v21q29 10 51 38q-23 1 -39.5 17t-16.5 39q0 22 17 39.5t41 17.5q25 0 42 -17.5t17 -40.5q0 -44 -48 -82q52 8 87 33q42 29 43 72h43v0zM-243 575q0 28 -28 28t-28 -28t28 -28t28 28z" />
    <glyph glyph-name="uni0E4A.alt1" unicode="&#xf707;" 
d="M-68 606q-23 -11 -32 -53q-13 -67 -67 -93l-28 9q18 23 18 49q0 33 -21 54l-26 -25l-36 33q-30 -8 -41 -32q8 2 15 2q19 0 31.5 -13.5t12.5 -30.5q0 -19 -13 -32.5t-31 -13.5q-22 0 -37.5 17t-15.5 43q0 33 22.5 57.5t60.5 32.5l31 -29l27 28q51 -19 51 -72q0 -24 -6 -39
l7 8q15 21 20 74q3 35 25 48l33 -22v0zM-266 506q0 22 -20 22t-20 -22t20 -22t20 22z" />
    <glyph glyph-name="uni0E4B.alt1" unicode="&#xf708;" 
d="M-181 514v-54h-40v54h-56v30h56v54h40v-54h56v-30h-56z" />
    <glyph glyph-name="uni0E4C.alt1" unicode="&#xf709;" 
d="M-84 615q-9 -26 -46 -39q-13 -5 -25 -9t-25 -9q43 -6 43 -49q0 -20 -15 -34.5t-35 -14.5q-22 0 -38.5 15.5t-16.5 40.5q0 51 64 72q48 16 59 45l35 -18v0zM-164 509q0 24 -24 24q-23 0 -23 -24t23 -24q24 0 24 24z" />
    <glyph glyph-name="uni0E48.alt2" unicode="&#xf70a;" 
d="M-95 460v123h40v-123h-40z" />
    <glyph glyph-name="uni0E49.alt2" unicode="&#xf70b;" 
d="M19 597q-7 -60 -63 -98q-59 -39 -156 -39h-18v21q29 10 51 38q-23 1 -39.5 17t-16.5 39q0 22 17 39.5t41 17.5q25 0 42 -17.5t17 -40.5q0 -44 -48 -82q52 8 87 33q42 29 43 72h43v0zM-137 575q0 28 -28 28t-28 -28t28 -28t28 28z" />
    <glyph glyph-name="uni0E4A.alt2" unicode="&#xf70c;" 
d="M-22 606q-23 -11 -32 -53q-13 -67 -67 -93l-28 9q18 23 18 49q0 33 -21 54l-26 -25l-36 33q-30 -8 -41 -32q8 2 15 2q19 0 31.5 -13.5t12.5 -30.5q0 -19 -13 -32.5t-31 -13.5q-22 0 -37.5 17t-15.5 43q0 33 22.5 57.5t60.5 32.5l31 -29l27 28q51 -19 51 -72q0 -24 -6 -39
l7 8q15 21 20 74q3 35 25 48l33 -22v0zM-220 506q0 22 -20 22t-20 -22t20 -22t20 22z" />
    <glyph glyph-name="uni0E4B.alt2" unicode="&#xf70d;" 
d="M-55 514v-54h-40v54h-56v30h56v54h40v-54h56v-30h-56z" />
    <glyph glyph-name="uni0E4C.alt2" unicode="&#xf70e;" 
d="M-14 615q-9 -26 -46 -39q-13 -5 -25 -9t-25 -9q43 -6 43 -49q0 -20 -15 -34.5t-35 -14.5q-22 0 -38.5 15.5t-16.5 40.5q0 51 64 72q48 16 59 45l35 -18v0zM-94 509q0 24 -24 24q-23 0 -23 -24t23 -24q24 0 24 24z" />
    <glyph glyph-name="uni0E0D.alt1" unicode="&#xf70f;" horiz-adv-x="532" 
d="M477 94q0 -94 -111 -94h-130v35h34v252q0 39 -27.5 61.5t-72.5 22.5q-29 0 -58 -16q-11 -8 -23 -15t-23 -14q34 -4 61 -11t47 -17v-30q-36 -3 -57.5 -28.5t-21.5 -61.5v-47q11 8 28 8q29 0 48.5 -20.5t19.5 -51.5q0 -30 -20 -51t-48 -21q-29 0 -48.5 20.5t-19.5 51.5v117
q0 70 73 101q-42 16 -106 16v28l32 24t32 25q42 27 90 27q58 0 95.5 -31t37.5 -83v-256h54q42 0 58 15t16 55v294l40 1v-306v0zM157 66q0 16 -10 27.5t-24 11.5t-23.5 -11.5t-9.5 -27.5t9.5 -27.5t23.5 -11.5t24 11.5t10 27.5z" />
    <glyph glyph-name="uni0E31.alt1" unicode="&#xf710;" 
d="M-50 584q-6 -57 -50 -95q-47 -39 -116 -39q-54 0 -90 22.5t-36 57.5q0 25 17.5 42.5t41.5 17.5t41 -17t17 -42q0 -29 -24 -47q7 -1 13 -1h12q57 0 91 26.5t40 74.5h43v0zM-256 531q0 28 -27 28q-26 0 -26 -28t26 -28q27 0 27 28z" />
    <glyph glyph-name="uni0E4D.alt1" unicode="&#xf711;" 
d="M-118 518q0 -28 -19.5 -47.5t-47.5 -19.5t-47.5 19.5t-19.5 47.5t19.5 47.5t47.5 19.5t47.5 -19.5t19.5 -47.5zM-148 517q0 15 -11 26t-26 11t-26 -11t-11 -26t11 -25.5t26 -10.5t26 10.5t11 25.5z" />
    <glyph glyph-name="uni0E47.alt1" unicode="&#xf712;" 
d="M-86 628q-27 -42 -78 -40q-5 0 -12.5 0.5t-18.5 1.5t-17.5 1.5t-9.5 0.5q-76 0 -76 -53q0 -18 11 -29q10 13 34 30q9 -33 34 -46q-3 8 -3 13q0 21 14 34.5t36 13.5t35 -14t13 -31q0 -19 -16.5 -34t-43.5 -16q-55 -1 -79 40q-19 -18 -26 -38q-48 26 -48 81q0 39 30 60
t82 19q2 0 7.5 -0.5t15.5 -1.5t16 -1h8q42 0 56 30l36 -21v0zM-151 510q0 19 -21 20q-24 2 -24 -22q0 -20 21 -20q24 0 24 22z" />
    <glyph glyph-name="uni0E48.alt3" unicode="&#xf713;" 
d="M-175 615v93h40v-93h-40z" />
    <glyph glyph-name="uni0E49.alt3" unicode="&#xf714;" 
d="M-74 738q-6 -54 -57.5 -88.5t-139.5 -34.5h-16v19q27 10 46 34q-21 1 -36 15.5t-15 34.5t15.5 36t36.5 16q23 0 38 -16t15 -37q0 -39 -43 -73q23 4 43 11t36 18q36 25 38 65h39v0zM-214 718q0 26 -26 26q-25 0 -25 -26q0 -25 25 -25q26 0 26 25z" />
    <glyph glyph-name="uni0E4A.alt3" unicode="&#xf715;" 
d="M-61 746q-17 -8 -25 -35q-3 -11 -6 -21.5t-7 -21.5q-17 -37 -51 -53l-25 8q16 20 16 44q0 30 -19 49l-23 -23l-32 30q-27 -7 -37 -29q8 2 13 2q18 0 29 -12.5t11 -27.5q0 -17 -12 -29t-28 -12q-20 0 -33.5 15t-13.5 39q0 64 74 81l28 -26l24 25q46 -16 46 -65
q0 -23 -5 -35l6 7q14 17 18 67q3 32 23 43l29 -20v0zM-239 656q0 20 -18 20t-18 -20t18 -20t18 20z" />
    <glyph glyph-name="uni0E4B.alt3" unicode="&#xf716;" 
d="M-135 659v-44h-40v44h-46v30h46v44h40v-44h46v-30h-46z" />
    <glyph glyph-name="uni0E4C.alt3" unicode="&#xf717;" 
d="M-99 712q-8 -23 -41 -35q-11 -4 -22.5 -8t-22.5 -8q39 -6 39 -44q0 -18 -13.5 -31t-31.5 -13q-20 0 -35 14t-15 36q0 46 58 65q46 15 53 40l31 -16v0zM-171 617q0 21 -21 21t-21 -21q0 -22 21 -22t21 22z" />
    <glyph glyph-name="uni0E38.alt1" unicode="&#xf718;" 
d="M-95 -395v66q-10 -2 -15 -2q-23 0 -39 16.5t-16 40.5q0 25 16 42t39 17t39 -17t16 -42v-121h-40zM-87 -273q0 29 -24 29t-24 -29q0 -28 24 -28t24 28z" />
    <glyph glyph-name="uni0E39.alt1" unicode="&#xf719;" 
d="M-55 -361q0 -34 -33 -34h-97v66q-10 -2 -15 -2q-23 0 -39 16.5t-16 40.5q0 25 16 42t39 17t39 -17t16 -42v-86h35q15 0 15 16v124h40v-141v0zM-177 -273q0 29 -24 29t-24 -29q0 -28 24 -28t24 28z" />
    <glyph glyph-name="uni0E3A.alt1" unicode="&#xf71a;" 
d="M-55 -250q0 -14 -10.5 -24.5t-24.5 -10.5t-24.5 10.5t-10.5 24.5t10.5 24.5t24.5 10.5t24.5 -10.5t10.5 -24.5z" />
    <glyph glyph-name="uni0E0E.alt1" unicode="&#xf71b;" horiz-adv-x="405" 
d="M306 -190q-28 48 -76 83q-15 -33 -47.5 -56t-69.5 -25q-42 -2 -69 15.5t-29 49.5q-1 31 25 55q25 22 58 26q7 1 13 1.5t13 0.5q43 0 83 -18q4 13 4 39h38q1 -14 -1 -28t-7 -28q23 -16 41 -31t29 -31v424q0 39 -27.5 61.5t-72.5 22.5q-37 0 -104 -35q34 -4 61 -11t47 -17
v-30q-35 -3 -54 -28.5t-18 -61.5l3 -121q1 -30 -19 -51t-49 -21q-28 0 -48 21t-20 51q0 31 19.5 51.5t48.5 20.5q17 0 30 -8l-3 63q-3 73 64 101q-42 16 -106 16v28l63 42q44 24 91 24q58 0 95.5 -31t37.5 -83v-481h-44zM111 66q0 16 -9.5 27.5t-23.5 11.5t-24 -11.5
t-10 -27.5t10 -27.5t24 -11.5t23.5 11.5t9.5 27.5zM195 -92q-24 21 -74 21q-28 0 -48 -13q-25 -17 -21 -42q6 -33 53 -33q18 0 33 6q45 20 57 61z" />
    <glyph glyph-name="uni0E0F.alt1" unicode="&#xf71c;" horiz-adv-x="412" 
d="M304 -190l-44 42l-41 -42h-26q-12 18 -34 38q-32 -38 -81 -38q-27 0 -48.5 16t-21.5 39q0 26 22 43t52 17q38 0 62 -21q4 17 4 40h38q0 -36 -11 -64l33 -33l52 50l51 -47v437q0 39 -27.5 61.5t-72.5 22.5q-37 0 -104 -35q34 -4 61 -11t47 -17v-30q-35 -3 -54 -28.5
t-18 -61.5l3 -121q1 -30 -19 -51t-49 -21q-28 0 -48 21t-20 51q0 31 19.5 51.5t48.5 20.5q17 0 30 -8l-3 63q-3 73 64 101q-42 16 -106 16v28l63 42q44 24 91 24q58 0 95.5 -31t37.5 -83v-481h-46zM111 66q0 16 -9.5 27.5t-23.5 11.5t-24 -11.5t-10 -27.5t10 -27.5t24 -11.5
t23.5 11.5t9.5 27.5zM131 -130q-17 23 -49 23q-15 0 -27 -7.5t-12 -19.5q0 -10 11.5 -17.5t24.5 -7.5q37 0 52 29z" />
    <glyph glyph-name="uni0E2C.alt1" unicode="&#xf71d;" horiz-adv-x="437" 
d="M416 398q-19 -34 -45 -60q6 -16 6 -30v-308h-41l-101 223l-107 -223h-40v244q0 10 5 18q-3 -1 -15 -1q-28 0 -48 21t-20 51t20 51t48 21q29 0 49 -21t20 -51q0 -21 -9.5 -44.5t-9.5 -42.5v-110q0 -13 -3 -78l20 54l73 153h33l70 -153l20 -54q-3 65 -3 78v176
q-28 -23 -72 -25q-33 -1 -57.5 16t-24.5 45q0 12 6.5 23.5t18 20t27 13.5t33.5 5q60 -2 85 -38q8 8 16.5 20t16.5 26l29 -20v0zM328 344q-19 33 -60 33q-18 0 -32 -8.5t-14 -20.5q0 -13 15 -20.5t33 -6.5q29 1 58 23zM112 332q0 16 -10 27.5t-24 11.5t-23.5 -11.5
t-9.5 -27.5t9.5 -27.5t23.5 -11.5t24 11.5t10 27.5z" />
    <glyph glyph-name="colon" unicode=":" horiz-adv-x="156" 
d="M114 294q0 -15 -10.5 -25.5t-25.5 -10.5t-25.5 10.5t-10.5 25.5t10.5 25.5t25.5 10.5t25.5 -10.5t10.5 -25.5zM114 31q0 -15 -10.5 -25.5t-25.5 -10.5t-25.5 10.5t-10.5 25.5t10.5 25.5t25.5 10.5t25.5 -10.5t10.5 -25.5z" />
    <glyph glyph-name="semicolon" unicode=";" horiz-adv-x="156" 
d="M114 294q0 -15 -10.5 -25.5t-25.5 -10.5t-25.5 10.5t-10.5 25.5t10.5 25.5t25.5 10.5t25.5 -10.5t10.5 -25.5zM122 18q0 -58 -69 -98l-16 16q38 22 55 63q-4 -4 -17 -4q-14 0 -24.5 10.5t-10.5 24.5q0 15 11 26t27 11q20 0 32 -14.5t12 -34.5z" />
    <glyph glyph-name="less" unicode="&#x3c;" horiz-adv-x="360" 
d="M22 157v36l315 141v-41l-266 -118l266 -118v-41z" />
    <glyph glyph-name="equal" unicode="=" horiz-adv-x="350" 
d="M20 205v40h310v-40h-310zM20 105v40h310v-40h-310z" />
    <glyph glyph-name="greater" unicode="&#x3e;" horiz-adv-x="360" 
d="M22 16v41l267 118l-267 118v41l315 -141v-36z" />
    <glyph glyph-name="question" unicode="?" horiz-adv-x="336" 
d="M294 366q0 -51 -35 -92q-16 -17 -31 -33t-31 -33q-33 -41 -28 -100h-40q-5 43 10 82q9 25 65 81q47 47 47 97q0 38 -23 62.5t-62 24.5q-81 0 -88 -94h-41q2 60 35.5 93.5t93.5 33.5q57 0 92.5 -32.5t35.5 -89.5zM185 31q0 -15 -10.5 -25.5t-25.5 -10.5t-25.5 10.5
t-10.5 25.5t10.5 25.5t25.5 10.5t25.5 -10.5t10.5 -25.5z" />
    <glyph glyph-name="at" unicode="@" horiz-adv-x="500" 
d="M478 273q0 -62 -44 -114q-46 -54 -109 -54q-39 0 -47 39q-36 -38 -76 -38q-36 0 -55 25t-19 61q0 60 38 113q40 58 98 58q46 0 65 -45l13 34l25 -1l-57 -170q-6 -18 -6 -29q0 -27 26 -27q52 0 90 50q35 47 35 99q0 78 -56 128q-55 49 -137 49q-88 0 -153 -63
q-64 -63 -64 -151q0 -90 59 -155q60 -65 150 -65q29 0 57.5 7t53.5 20.5t45.5 33.5t33.5 45l22 -1q-13 -30 -35 -53.5t-50.5 -40t-61 -25t-66.5 -8.5q-99 0 -167 74q-65 71 -65 171q0 97 72 164q72 69 170 69q90 0 152 -56q63 -55 63 -144zM315 292q0 19 -13.5 35t-32.5 16
q-47 0 -81 -55q-30 -49 -30 -99q0 -63 45 -63q56 0 86 81q26 72 26 85z" />
    <glyph glyph-name="A" unicode="A" horiz-adv-x="485" 
d="M324 0v31h65l-50 138h-197l-50 -138h65v-31h-149v31h40l169 449h50l168 -449h41v-31h-152zM240 441l-84 -240h170z" />
    <glyph glyph-name="B" unicode="B" horiz-adv-x="410" 
d="M372 135q0 -77 -59 -115q-32 -20 -94 -20h-205v32h64v414h-64v34h212q57 0 94 -28q40 -31 40 -87q0 -98 -83 -115q45 -7 70 -38t25 -77zM318 355q0 91 -106 91h-93v-183h85q114 0 114 92zM330 128q0 103 -119 103h-92v-199h91q120 0 120 96z" />
    <glyph glyph-name="C" unicode="C" horiz-adv-x="447" 
d="M412 160q-4 -78 -52 -122.5t-126 -44.5q-101 0 -154 80q-47 68 -47 173q0 103 50 168q56 71 155 71q97 0 136 -75v68h35v-169h-34q-3 63 -39 102t-97 39q-80 0 -124 -65q-37 -55 -37 -139q0 -87 33 -146q41 -72 122 -72q120 0 138 132h41v0z" />
    <glyph glyph-name="D" unicode="D" horiz-adv-x="459" 
d="M428 243q0 -142 -82 -203q-52 -40 -158 -40h-172v34h65v412h-65v34h179q67 0 106 -16q63 -25 98 -90q29 -58 29 -131zM385 244q0 90 -47 145q-49 57 -140 57h-76v-412h68q195 0 195 210z" />
    <glyph glyph-name="E" unicode="E" horiz-adv-x="410" 
d="M14 0v32h65v416h-65v32h353v-144h-36v112h-210v-188h112v78h34v-191h-34v81h-112v-196h213v117h36v-149h-356z" />
    <glyph glyph-name="F" unicode="F" horiz-adv-x="372" 
d="M317 334v114h-199v-195h108v77h35v-188h-35v78h-108v-189h80v-31h-186v31h64v417h-64v32h340v-146h-35z" />
    <glyph glyph-name="G" unicode="G" horiz-adv-x="485" 
d="M417 204v-204h-40v69q-19 -38 -59 -58t-86 -20q-95 0 -154 75q-49 62 -49 178q0 99 51 166q57 75 152 75q99 0 145 -73v65h36v-170h-35q0 32 -10.5 58t-29.5 45t-45.5 29.5t-58.5 10.5q-75 0 -120 -69q-40 -61 -40 -139q0 -83 37 -144q44 -72 122 -72q97 0 132 80
q12 29 12 83v15h-77v30h172v-30h-55z" />
    <glyph glyph-name="H" unicode="H" horiz-adv-x="485" 
d="M299 0v31h65v195h-243v-195h66v-31h-172v31h64v418h-64v31h172v-31h-66v-189h243v189h-65v31h171v-31h-65v-418h65v-31h-171z" />
    <glyph glyph-name="I" unicode="I" horiz-adv-x="199" 
d="M12 0v30h67v419h-67v31h175v-31h-67v-419h67v-30h-175z" />
    <glyph glyph-name="J" unicode="J" horiz-adv-x="298" 
d="M247 448v-312q0 -69 -23 -100q-33 -43 -93 -43q-57 0 -86.5 36t-29.5 94v5t1 8v13h42q0 -121 72 -121q75 0 75 105v315h-71v32h158v-32h-45z" />
    <glyph glyph-name="K" unicode="K" horiz-adv-x="410" 
d="M263 0v30h54l-195 219v-219h62v-30h-168v30h64v418h-64v32h168v-32h-62v-188l190 188h-54v32h137v-31h-34l-197 -193l203 -226h37v-30h-141z" />
    <glyph glyph-name="L" unicode="L" horiz-adv-x="372" 
d="M14 0v33h65v416h-65v31h188v-31h-80v-416h193v121h37v-154h-338z" />
    <glyph glyph-name="M" unicode="M" horiz-adv-x="596" 
d="M410 0v30h62v418h-1l-157 -448h-36l-156 448v-418h60v-30h-166v30h67v418h-67v32h136l116 -333q5 -15 12 -39t17 -57q6 21 13.5 44.5t16.5 49.5l117 335h134v-32h-66v-418h66v-30h-168z" />
    <glyph glyph-name="N" unicode="N" horiz-adv-x="485" 
d="M412 446v-446h-54l-215 390q-5 8 -11.5 20.5t-15.5 29.5l3 -411h66v-29h-171v29h66v417h-66v32h126l159 -291q11 -19 20.5 -37.5t18.5 -36.5l36 -71v404h-68v31h166v-31h-60z" />
    <glyph glyph-name="O" unicode="O" horiz-adv-x="485" 
d="M452 248q0 -108 -41 -170q-55 -84 -166 -84q-108 0 -163 76q-49 67 -49 177q0 105 52 172q57 75 159 75q101 0 158 -75q50 -68 50 -171zM408 247q0 89 -37 145q-44 68 -128 68t-128 -68q-37 -56 -37 -146q0 -91 35 -150q43 -70 131 -70q86 0 129 72q35 59 35 149z" />
    <glyph glyph-name="P" unicode="P" horiz-adv-x="372" 
d="M356 342q0 -140 -162 -140h-75v-171h78v-31h-184v31h64v417h-64v32h191q70 0 109 -33q43 -36 43 -105zM313 344q0 102 -117 102h-77v-211h72q122 0 122 109z" />
    <glyph glyph-name="Q" unicode="Q" horiz-adv-x="485" 
d="M383 0q-13 0 -31.5 -0.5t-43.5 -1.5t-43 -1.5t-31 -0.5q-101 0 -155 80q-47 70 -47 174q0 101 54 167q58 70 158 70q97 0 152 -73q50 -67 50 -166q0 -156 -105 -218q32 3 61 3h74v-33h-93zM402 249q0 79 -38 138q-44 68 -119 68q-83 0 -130 -65q-40 -58 -40 -144
q0 -88 37 -146q44 -71 126 -71q81 0 126 73q38 62 38 147z" />
    <glyph glyph-name="R" unicode="R" horiz-adv-x="422" 
d="M332 0l-42 142q-14 45 -28 59q-19 17 -60 17h-79v-187h64v-31h-172v31h66v416h-66v33h193q149 0 149 -127q0 -104 -90 -121q29 -7 42 -30q11 -15 21 -51l36 -120h48v-31h-82zM316 352q0 95 -107 95h-86v-198h78q115 0 115 103z" />
    <glyph glyph-name="S" unicode="S" horiz-adv-x="348" 
d="M322 128q0 -61 -37.5 -98.5t-98.5 -37.5q-85 0 -118 68v-60h-36v168h35q3 -59 28 -96q30 -46 84 -46q45 0 73 27t28 72q0 57 -64 87q-29 11 -59 23t-60 23q-64 33 -64 100q0 60 38 94.5t98 34.5q72 0 108 -62v54h36v-164h-35q-6 139 -108 139q-42 0 -68.5 -24.5
t-26.5 -66.5q0 -54 64 -82q29 -11 59 -23l60 -24q64 -34 64 -106z" />
    <glyph glyph-name="T" unicode="T" horiz-adv-x="410" 
d="M352 332v114h-126v-416h77v-30h-196v30h77v416h-126v-114h-37v147h368v-147h-37z" />
    <glyph glyph-name="U" unicode="U" horiz-adv-x="447" 
d="M389 448v-265q0 -84 -42 -135q-45 -54 -129 -54q-87 0 -134 74q-25 40 -25 119v261h-50v32h161v-32h-69v-263q0 -67 21 -102q34 -55 100 -55q67 0 100 47q29 41 29 110v263h-69v32h158v-32h-51z" />
    <glyph glyph-name="V" unicode="V" horiz-adv-x="447" 
d="M407 449l-159 -449h-49l-159 449h-40v31h156v-31h-71l113 -323l27 -81q5 14 11.5 34t15.5 46l113 324h-70v31h154v-31h-42z" />
    <glyph glyph-name="W" unicode="W" horiz-adv-x="608" 
d="M569 448l-102 -448h-52l-100 397q-2 10 -5 21t-5 24q-2 -8 -4 -19t-5 -25l-102 -398h-52l-101 448h-39v31h152v-31h-71l75 -340q4 -19 6.5 -36t4.5 -31q2 9 4 22.5t6 31.5l100 384h55l94 -376q5 -17 8 -33.5t5 -31.5q3 17 8 42t12 57l69 311h-71v31h148v-31h-38z" />
    <glyph glyph-name="X" unicode="X" horiz-adv-x="459" 
d="M300 0v27h67l-142 195l-141 -195h68v-27h-152v27h41l161 221l-150 203h-40v28h152v-28h-62l130 -178l129 178h-61v28h147v-28h-42l-150 -203l161 -221h43v-27h-159z" />
    <glyph glyph-name="Y" unicode="Y" horiz-adv-x="410" 
d="M370 449l-145 -250v-168h77v-31h-195v31h77v167l-144 251h-39v31h150v-31h-63l119 -208l119 208h-63v31h146v-31h-39z" />
    <glyph glyph-name="Z" unicode="Z" horiz-adv-x="385" 
d="M21 0v41l289 404h-246v-111h-35v145h326v-38l-292 -408h263v118h36v-151h-341z" />
    <glyph glyph-name="bracketleft" unicode="[" horiz-adv-x="186" 
d="M67 -96v609h86v-28h-50v-553h50v-28h-86z" />
    <glyph glyph-name="backslash" unicode="\" horiz-adv-x="236" 
d="M192 0l-179 480h33l180 -480h-34z" />
    <glyph glyph-name="bracketright" unicode="]" horiz-adv-x="186" 
d="M34 -96v28h50v553h-50v28h87v-609h-87z" />
    <glyph glyph-name="asciicircum" unicode="^" horiz-adv-x="360" 
d="M293 275l-114 173l-113 -173h-40l131 205h46l131 -205h-41z" />
    <glyph glyph-name="underscore" unicode="_" horiz-adv-x="350" 
d="M0 -86v36h350v-36h-350z" />
    <glyph glyph-name="grave" unicode="`" horiz-adv-x="360" 
d="M188 400l-78 91h49l62 -91h-33z" />
    <glyph glyph-name="a" unicode="a" horiz-adv-x="336" 
d="M244 0v62q-30 -68 -113 -68q-49 0 -78.5 27t-29.5 75q0 111 165 111h27q9 -1 15.5 -1h10.5q0 55 -12 80q-17 38 -67 38q-80 0 -88 -78h-38q11 108 127 108t116 -135v-188h47v-31h-82zM241 175q-8 1 -21.5 1.5t-31.5 0.5q-58 0 -85 -12q-40 -18 -40 -69q0 -33 20 -52.5
t52 -19.5q106 0 106 151z" />
    <glyph glyph-name="b" unicode="b" horiz-adv-x="372" 
d="M346 172q0 -74 -32 -123q-37 -55 -110 -55q-78 0 -108 70v-64h-87v31h49v419h-51v31h89v-195q32 69 109 69q73 0 110 -58q31 -47 31 -125zM305 172q0 61 -22 101q-29 50 -84 50t-82 -49q-21 -39 -21 -98q0 -150 102 -150q56 0 84 48q23 40 23 98z" />
    <glyph glyph-name="c" unicode="c" horiz-adv-x="334" 
d="M312 113q0 -34 -19 -65q-33 -54 -110 -54q-71 0 -112 56q-36 50 -36 124q0 72 35 122q39 56 109 56q75 0 101 -53v44h32v-128h-31q-9 105 -96 105q-54 0 -83 -48q-24 -40 -24 -98q0 -57 24 -98q28 -49 83 -49q76 0 93 86h34v0z" />
    <glyph glyph-name="d" unicode="d" horiz-adv-x="372" 
d="M276 0v62q-30 -68 -109 -68q-72 0 -110 57q-32 49 -32 125q0 72 34 121q39 57 109 57q76 0 108 -62v158h-56v30h94v-450h46v-30h-84zM276 180q0 59 -21 96q-26 47 -81 47q-56 0 -85 -48q-24 -40 -24 -100q0 -61 23 -101q28 -49 86 -49q102 0 102 155z" />
    <glyph glyph-name="e" unicode="e" horiz-adv-x="336" 
d="M65 165q1 -56 27 -97q30 -47 83 -47q85 0 98 85h35q-7 -52 -43 -83.5t-90 -31.5q-77 0 -116 57q-34 47 -34 128q0 76 36 124q39 54 113 54q75 0 111 -60q30 -49 28 -129h-248zM274 196q-1 53 -24 87q-29 41 -76 41q-51 0 -80 -41q-23 -32 -28 -87h208v0z" />
    <glyph glyph-name="f" unicode="f" horiz-adv-x="186" 
d="M203 448q-17 5 -37 5q-60 0 -60 -78v-29h70v-31h-70v-286h62v-29h-152v29h51v286h-55v31h55q0 66 14 96q23 45 82 45q27 0 40 -6v-33v0z" />
    <glyph glyph-name="g" unicode="g" horiz-adv-x="372" 
d="M313 314v-296q0 -138 -140 -138q-126 0 -129 90h38q14 -60 92 -60q45 0 72.5 22t27.5 65v69q-28 -66 -109 -66q-70 0 -108 57q-33 50 -33 123t34 120q38 53 106 53q82 0 110 -70v61h90v-30h-51zM274 182q0 57 -22 94q-27 45 -81 45q-55 0 -83 -46q-24 -39 -24 -97
q0 -55 24 -97q29 -50 81 -50t82 41q23 32 23 110z" />
    <glyph glyph-name="h" unicode="h" horiz-adv-x="372" 
d="M217 0v30h55v197q0 97 -71 97q-50 0 -75 -37q-22 -31 -22 -83v-174h55v-30h-146v30h52v420h-52v30h91v-185q27 60 103 60q51 0 77.5 -31.5t26.5 -83.5v-210h51v-30h-145z" />
    <glyph glyph-name="i" unicode="i" horiz-adv-x="174" 
d="M62 415v49h48v-49h-48zM13 0v30h57v286h-57v31h97v-317h53v-30h-150z" />
    <glyph glyph-name="j" unicode="j" horiz-adv-x="161" 
d="M58 416v48h47v-48h-47zM105 -23q0 -47 -12 -68q-16 -27 -63 -27q-14 0 -34 4v31q11 -4 31 -4q39 0 39 62v342h-56v30h95v-370v0z" />
    <glyph glyph-name="k" unicode="k" horiz-adv-x="336" 
d="M211 0v30h40l-91 159l-59 -59v-100h47v-30h-137v30h51v421h-51v29h90v-309l141 146h-43v29h122v-29h-38l-97 -99l108 -188h32v-30h-115z" />
    <glyph glyph-name="l" unicode="l" horiz-adv-x="161" 
d="M9 0v30h55v421h-55v29h95v-450h52v-30h-147z" />
    <glyph glyph-name="m" unicode="m" horiz-adv-x="559" 
d="M408 0v30h53v189q0 101 -74 101q-83 0 -83 -117v-173h52v-30h-146v30h54v186q0 105 -70 105q-47 0 -70 -42q-18 -33 -18 -83v-166h53v-30h-143v30h50v285h-50v30h87v-56q30 64 100 64t93 -68q27 67 99 67q53 0 81 -36q24 -31 24 -86v-200h45v-30h-137z" />
    <glyph glyph-name="n" unicode="n" horiz-adv-x="372" 
d="M218 0v30h55v201q0 90 -74 90q-47 0 -73 -36q-22 -31 -22 -82v-173h57v-30h-146v30h51v285h-51v30h89v-53q26 60 101 60q49 0 78 -29.5t29 -77.5v-215h45v-30h-139z" />
    <glyph glyph-name="o" unicode="o" horiz-adv-x="348" 
d="M324 174q0 -73 -35 -125q-40 -58 -112 -58q-77 0 -117 58q-36 51 -36 129q0 74 38 123q42 53 115 53q71 0 112 -56q35 -50 35 -124zM282 176q0 58 -24 98q-29 50 -83 50q-55 0 -85 -48q-25 -40 -25 -99q0 -61 23 -102q28 -52 86 -52q57 0 85 52q23 41 23 101z" />
    <glyph glyph-name="p" unicode="p" horiz-adv-x="372" 
d="M345 175q0 -74 -32 -124q-37 -58 -109 -58q-80 0 -109 72v-148h56v-29h-146v29h52v397h-52v30h90v-65q28 73 108 73q73 0 110 -54q32 -47 32 -123zM306 175q0 60 -24 99q-29 47 -85 47q-55 0 -81 -51q-20 -40 -20 -99q0 -57 22 -97q27 -50 79 -50q57 0 86 50
q23 41 23 101z" />
    <glyph glyph-name="q" unicode="q" horiz-adv-x="372" 
d="M224 -112v29h51v141q-28 -66 -106 -66q-75 0 -111 60q-31 49 -31 128q0 75 34 121q39 53 110 53q76 0 106 -69v59h87v-29h-50v-398h50v-29h-140zM277 175q0 147 -100 147q-55 0 -85 -44q-25 -37 -25 -96q0 -158 109 -158q101 0 101 151z" />
    <glyph glyph-name="r" unicode="r" horiz-adv-x="223" 
d="M211 315q-3 1 -12 1q-98 0 -98 -123v-164h65v-29h-153v29h49v285h-49v30h88v-54q24 61 88 61q10 0 22 -3v-33v0z" />
    <glyph glyph-name="s" unicode="s" horiz-adv-x="298" 
d="M271 99q0 -49 -34.5 -77t-85.5 -28q-65 0 -94 50v-44h-31v127h30q2 -45 25.5 -73.5t66.5 -28.5q32 0 57 19t25 50q0 46 -52 59q-24 5 -48 10.5t-49 10.5q-52 18 -52 75q0 24 9.5 43.5t25.5 33t37.5 20.5t45.5 7q54 0 84 -45v37h31v-119h-30v8q0 39 -23 63t-62 24
q-35 0 -57 -18t-22 -51q0 -40 53 -54q24 -5 48 -11t49 -11q53 -20 53 -77z" />
    <glyph glyph-name="t" unicode="t" horiz-adv-x="223" 
d="M208 99q0 -104 -76 -104q-67 0 -67 97v225h-61v31h61v70l39 13v-83h94v-31h-94v-230q0 -61 32 -61q37 0 40 73h32v0z" />
    <glyph glyph-name="u" unicode="u" horiz-adv-x="372" 
d="M267 0v54q-19 -61 -99 -61q-107 0 -107 132v191h-50v30h89v-221q0 -101 72 -101q95 0 95 135v157h-58v30h97v-315h51v-31h-90z" />
    <glyph glyph-name="v" unicode="v" horiz-adv-x="336" 
d="M299 315l-108 -315h-48l-108 315h-30v30h118v-30h-45l58 -175q11 -34 19 -60.5t13 -46.5q1 2 9 29t25 78l56 175h-44v30h113v-30h-28z" />
    <glyph glyph-name="w" unicode="w" horiz-adv-x="534" 
d="M494 315l-94 -315h-50l-64 234q-4 23 -18 74l-20 -74l-64 -234h-49l-95 315h-30v30h122v-30h-50l62 -212q2 -9 6.5 -25.5t10.5 -39.5q2 11 6.5 27.5t9.5 38.5l68 242h48l68 -243l15 -66q5 20 18 66l62 212h-50v30h118v-30h-30z" />
    <glyph glyph-name="x" unicode="x" horiz-adv-x="348" 
d="M224 0v26h48l-102 133l-103 -133h46v-26h-119v26h34l119 153l-108 141h-35v26h122v-26h-43l93 -121l93 121h-42v26h117v-26h-36l-110 -141l118 -153h33v-26h-125z" />
    <glyph glyph-name="y" unicode="y" horiz-adv-x="336" 
d="M303 316l-130 -358q-28 -78 -84 -78q-19 0 -34 5l1 31q5 -3 26 -3q29 0 45 31l12 28l12 28l-116 316h-29v29h120v-29h-48l77 -218q3 -8 7 -20.5t9 -28.5q2 7 6 18t9 26l77 223h-49v29h114v-29h-25z" />
    <glyph glyph-name="z" unicode="z" horiz-adv-x="310" 
d="M30 0v38l201 277h-163v-68h-34v98h240v-36l-202 -279h172v76h33v-106h-247z" />
    <glyph glyph-name="braceleft" unicode="{" horiz-adv-x="360" 
d="M257 -133q-31 0 -52 5t-34 17.5t-18 33t-5 52.5v119q0 55 -42 70v29q42 14 42 68v132q0 54 23 76t77 22h9v-36q-37 -2 -52 -17.5t-15 -51.5v-130q0 -58 -36 -78q36 -22 36 -82v-124q0 -38 14.5 -54t52.5 -18v-33v0z" />
    <glyph glyph-name="bar" unicode="|" horiz-adv-x="360" 
d="M160 -120v600h40v-600h-40z" />
    <glyph glyph-name="braceright" unicode="}" horiz-adv-x="360" 
d="M253 164q-41 -14 -41 -68v-132q0 -55 -26 -76t-83 -21v35q37 2 52 17t15 52v129q0 59 35 79q-35 23 -35 82v123q0 40 -14.5 56t-52.5 17v34q64 0 86 -22q23 -21 23 -87v-118q0 -56 41 -70v-30v0z" />
    <glyph glyph-name="asciitilde" unicode="~" horiz-adv-x="480" 
d="M413 222q-40 -75 -97 -75q-28 0 -78 26q-49 27 -77 27q-38 0 -70 -54l-25 17q39 75 97 75q28 0 78 -26t78 -26q37 0 70 53l24 -17v0z" />
    <glyph glyph-name="exclam" unicode="!" horiz-adv-x="162" 
d="M94 102h-26l-11 210v168h49v-168zM117 31q0 -15 -10.5 -25.5t-25.5 -10.5t-25.5 10.5t-10.5 25.5t10.5 25.5t25.5 10.5t25.5 -10.5t10.5 -25.5z" />
    <glyph glyph-name="quotedbl" unicode="&#x22;" horiz-adv-x="213" 
d="M169 288h-32l-6 192h44zM77 288h-33l-5 192h43z" />
    <glyph glyph-name="numbersign" unicode="#" horiz-adv-x="427" 
d="M382 254h-94l-12 -81h95l-4 -26h-94l-20 -147h-27l20 147h-85l-22 -147h-27l22 147h-93l4 26h92l12 81h-92l3 27h92l21 135h26l-20 -135h85l20 135h26l-19 -135h95zM176 254l-12 -81h86l11 81h-85z" />
    <glyph glyph-name="dollar" unicode="$" horiz-adv-x="336" 
d="M317 124q0 -45 -26 -79.5t-69 -48.5v-64h-21v61q-7 -1 -12 -1.5t-9 -0.5q-16 0 -38 5v-64h-22v71q-44 23 -60 56v-59h-36v154h35q0 -34 15 -66q17 -35 46 -49v204q-94 35 -95 116q-1 45 24.5 80t70.5 46v59h22v-57q4 1 20 1q14 0 39 -5v61h21v-69q30 -11 52 -48v53h35
v-151h-34q0 77 -53 109v-188q95 -35 95 -126zM201 448q-21 8 -42 8q-11 0 -17 -2v-176l22.5 -7.5t32.5 -11.5q1 -1 4 -1v190zM120 449q-55 -19 -55 -83q0 -55 55 -79v162zM277 118q0 59 -55 86v-172q55 21 55 86zM201 214q-2 1 -59 21v-205q18 -6 39 -6q12 0 20 2v188z" />
    <glyph glyph-name="percent" unicode="%" horiz-adv-x="521" 
d="M461 132q0 -132 -84 -132q-87 0 -87 130q0 126 87 126q84 0 84 -124zM151 0h-29l242 480h30zM224 349q0 -123 -86 -123t-86 124q0 130 87 130q85 0 85 -131zM429 133q0 97 -53 97t-53 -100q0 -102 52 -102q54 0 54 105zM190 348q0 105 -52 105t-52 -103q0 -99 52 -99
t52 97z" />
    <glyph glyph-name="ampersand" unicode="&#x26;" horiz-adv-x="497" 
d="M381 0l-51 59q-55 -69 -154 -69q-60 0 -97 40q-38 41 -38 97q0 48 29 86.5t74 58.5q-34 42 -42 54q-22 34 -22 65q0 43 35 72q32 26 77 26q48 0 77.5 -24t30.5 -69q2 -74 -95 -133l125 -142q11 19 20 51t14 78h-51v31h147v-31h-58q-14 -116 -49 -159l55 -60h69v-31h-96z
M259 391q0 28 -18 47.5t-47 19.5t-50.5 -17.5t-21.5 -45.5q0 -29 20 -58q4 -7 14 -19t26 -29q77 38 77 102zM170 243q-85 -40 -85 -116q0 -45 28 -74.5t73 -29.5q35 0 68.5 17t52.5 45z" />
    <glyph glyph-name="quotesingle" unicode="'" horiz-adv-x="122" 
d="M77 288h-33l-5 192h44z" />
    <glyph glyph-name="parenleft" unicode="(" horiz-adv-x="186" 
d="M133 -95q-98 143 -98 310q0 146 98 297l34 -1q-12 -15 -46 -90q-45 -97 -45 -208q0 -86 24 -160q20 -61 67 -147z" />
    <glyph glyph-name="parenright" unicode=")" horiz-adv-x="186" 
d="M150 215q0 -77 -27 -163q-13 -43 -30.5 -79.5t-39.5 -67.5l-34 1q23 43 40 79.5t27 67.5q24 75 24 160q0 115 -52 223q-10 27 -39 75l34 1q97 -149 97 -297z" />
    <glyph glyph-name="asterisk" unicode="*" horiz-adv-x="273" 
d="M166 359l-13 -2q5 -4 8 -7l5 -5l46 -62l-31 -23l-37 69q-1 4 -3 8t-4 9q-2 -4 -4 -7.5t-4 -7.5l-40 -71l-31 25l51 63q1 1 5.5 5t6.5 6q-2 0 -6 0.5t-9 1.5l-76 22l11 39l74 -33q2 -1 5 -3t7 -4l-2 11l-6 88h37l-6 -87q0 -1 -1.5 -6t-1.5 -7q2 1 6.5 4t5.5 3l73 32
l11 -40z" />
    <glyph glyph-name="plus" unicode="+" horiz-adv-x="350" 
d="M330 195v-40h-135v-135h-40v135h-135v40h135v135h40v-135h135z" />
    <glyph glyph-name="comma" unicode="," horiz-adv-x="156" 
d="M122 18q0 -58 -69 -98l-16 16q38 22 55 63q-4 -4 -17 -4q-14 0 -24.5 10.5t-10.5 24.5q0 15 11 26t27 11q20 0 32 -14.5t12 -34.5z" />
    <glyph glyph-name="hyphen" unicode="-" horiz-adv-x="248" 
d="M43 183v36h162v-36h-162z" />
    <glyph glyph-name="period" unicode="." horiz-adv-x="156" 
d="M114 31q0 -15 -10.5 -25.5t-25.5 -10.5t-25.5 10.5t-10.5 25.5t10.5 25.5t25.5 10.5t25.5 -10.5t10.5 -25.5z" />
    <glyph glyph-name="slash" unicode="/" horiz-adv-x="236" 
d="M44 0h-33l180 480h32z" />
    <glyph glyph-name="registered" unicode="&#xae;" horiz-adv-x="567" 
d="M533 240q0 -101 -74 -175q-73 -73 -176 -73q-104 0 -177 73t-73 175q0 103 73 175q73 73 177 73q103 0 176 -73q74 -74 74 -175zM505 240q0 92 -65 157q-64 66 -157 66q-92 0 -157 -66q-65 -65 -65 -157q0 -90 65 -157q65 -65 157 -65t157 65q65 67 65 157zM371 94
q-6 10 -7 32l-2 44q-3 28 -19 38q-19 12 -59 12h-79v-126h-30v286h121q40 0 69 -17q32 -20 32 -59q0 -51 -48 -72q31 -11 38 -36q2 -7 3 -19.5t2 -31.5q0 -33 9 -50zM367 302q0 54 -76 54h-86v-113h79q83 0 83 59z" />
    <glyph glyph-name="uni0E4E.alt1" 
 />
    <glyph glyph-name="uni0E33.alt1" horiz-adv-x="326" 
d="M231 0v273q0 98 -95 98q-35 0 -62.5 -21.5t-37.5 -57.5l-36 14q14 42 50.5 70.5t84.5 28.5q63 0 99.5 -33t36.5 -93v-279h-40zM-118 518q0 -28 -19.5 -47.5t-47.5 -19.5t-47.5 19.5t-19.5 47.5t19.5 47.5t47.5 19.5t47.5 -19.5t19.5 -47.5zM-148 517q0 15 -11 26t-26 11
t-26 -11t-11 -26t11 -25.5t26 -10.5t26 10.5t11 25.5z" />
    </font>
</defs>
</svg>
